<?xml version="1.0" encoding="utf-8" standalone="no"?>
<!DOCTYPE svg PUBLIC "-//W3C//DTD SVG 1.1//EN"
  "http://www.w3.org/Graphics/SVG/1.1/DTD/svg11.dtd">
<svg xmlns:xlink="http://www.w3.org/1999/xlink" width="460.8pt" height="345.6pt" viewBox="0 0 460.8 345.6" xmlns="http://www.w3.org/2000/svg" version="1.1">
 <metadata>
  <rdf:RDF xmlns:dc="http://purl.org/dc/elements/1.1/" xmlns:cc="http://creativecommons.org/ns#" xmlns:rdf="http://www.w3.org/1999/02/22-rdf-syntax-ns#">
   <cc:Work>
    <dc:type rdf:resource="http://purl.org/dc/dcmitype/StillImage"/>
    <dc:date>2025-04-04T21:20:40.702486</dc:date>
    <dc:format>image/svg+xml</dc:format>
    <dc:creator>
     <cc:Agent>
      <dc:title>Matplotlib v3.10.0, https://matplotlib.org/</dc:title>
     </cc:Agent>
    </dc:creator>
   </cc:Work>
  </rdf:RDF>
 </metadata>
 <defs>
  <style type="text/css">*{stroke-linejoin: round; stroke-linecap: butt}</style>
 </defs>
 <g id="figure_1">
  <g id="patch_1">
   <path d="M 0 345.6 
L 460.8 345.6 
L 460.8 0 
L 0 0 
z
" style="fill: #ffffff"/>
  </g>
  <g id="axes_1">
   <g id="line2d_1">
    <path d="M 74.329066 121.848451 
L 413.369242 121.848451 
" clip-path="url(#p77d1ecda3e)" style="fill: none; stroke: #000000; stroke-width: 0.536719; stroke-linecap: square"/>
   </g>
   <g id="line2d_2">
    <path d="M 74.329066 135.356027 
L 413.369242 135.356027 
" clip-path="url(#p77d1ecda3e)" style="fill: none; stroke: #000000; stroke-width: 0.536719; stroke-linecap: square"/>
   </g>
   <g id="line2d_3">
    <path d="M 74.329066 148.863604 
L 413.369242 148.863604 
" clip-path="url(#p77d1ecda3e)" style="fill: none; stroke: #000000; stroke-width: 0.536719; stroke-linecap: square"/>
   </g>
   <g id="line2d_4">
    <path d="M 74.329066 162.371181 
L 413.369242 162.371181 
" clip-path="url(#p77d1ecda3e)" style="fill: none; stroke: #000000; stroke-width: 0.536719; stroke-linecap: square"/>
   </g>
   <g id="line2d_5">
    <path d="M 413.369242 121.848451 
L 413.369242 162.371181 
" clip-path="url(#p77d1ecda3e)" style="fill: none; stroke: #000000; stroke-width: 0.402539; stroke-linecap: square"/>
   </g>
   <g id="line2d_6">
    <path d="M 74.329066 189.386334 
L 413.369242 189.386334 
" clip-path="url(#p77d1ecda3e)" style="fill: none; stroke: #000000; stroke-width: 0.536719; stroke-linecap: square"/>
   </g>
   <g id="line2d_7">
    <path d="M 74.329066 202.893911 
L 413.369242 202.893911 
" clip-path="url(#p77d1ecda3e)" style="fill: none; stroke: #000000; stroke-width: 0.536719; stroke-linecap: square"/>
   </g>
   <g id="line2d_8">
    <path d="M 74.329066 216.401488 
L 413.369242 216.401488 
" clip-path="url(#p77d1ecda3e)" style="fill: none; stroke: #000000; stroke-width: 0.536719; stroke-linecap: square"/>
   </g>
   <g id="line2d_9">
    <path d="M 74.329066 229.909065 
L 413.369242 229.909065 
" clip-path="url(#p77d1ecda3e)" style="fill: none; stroke: #000000; stroke-width: 0.536719; stroke-linecap: square"/>
   </g>
   <g id="line2d_10">
    <path d="M 74.19399 189.386334 
L 74.19399 229.909065 
" clip-path="url(#p77d1ecda3e)" style="fill: none; stroke: #000000; stroke-width: 0.402539; stroke-linecap: square"/>
   </g>
   <g id="patch_2">
    <path d="M 72.978309 115.094662 
L -264.71111 115.094662 
L -264.71111 182.632546 
L 72.978309 182.632546 
z
" clip-path="url(#p77d1ecda3e)" style="fill: #ffffff; stroke: #ffffff; stroke-width: 0.402539; stroke-linejoin: miter"/>
   </g>
   <g id="patch_3">
    <path d="M 72.978309 182.632546 
L -264.71111 182.632546 
L -264.71111 317.708313 
L 72.978309 317.708313 
z
" clip-path="url(#p77d1ecda3e)" style="fill: #ffffff; stroke: #ffffff; stroke-width: 0.402539; stroke-linejoin: miter"/>
   </g>
   <g id="line2d_11">
    <path d="M 108.638311 135.356027 
L 108.638311 121.848451 
" clip-path="url(#p77d1ecda3e)" style="fill: none; stroke: #002d9c; stroke-width: 0.536719; stroke-linecap: square"/>
   </g>
   <g id="line2d_12">
    <path d="M 135.653465 135.356027 
L 135.653465 121.848451 
" clip-path="url(#p77d1ecda3e)" style="fill: none; stroke: #002d9c; stroke-width: 0.536719; stroke-linecap: square"/>
   </g>
   <g id="line2d_13">
    <path d="M 149.161041 148.863604 
L 149.161041 121.848451 
" clip-path="url(#p77d1ecda3e)" style="fill: none; stroke: #002d9c; stroke-width: 0.536719; stroke-linecap: square"/>
   </g>
   <g id="line2d_14">
    <path d="M 176.176195 148.863604 
L 176.176195 121.848451 
" clip-path="url(#p77d1ecda3e)" style="fill: none; stroke: #002d9c; stroke-width: 0.536719; stroke-linecap: square"/>
   </g>
   <g id="line2d_15">
    <path d="M 189.683772 148.863604 
L 189.683772 135.356027 
" clip-path="url(#p77d1ecda3e)" style="fill: none; stroke: #002d9c; stroke-width: 0.536719; stroke-linecap: square"/>
   </g>
   <g id="line2d_16">
    <path d="M 203.191348 162.371181 
L 203.191348 121.848451 
" clip-path="url(#p77d1ecda3e)" style="fill: none; stroke: #002d9c; stroke-width: 0.536719; stroke-linecap: square"/>
   </g>
   <g id="line2d_17">
    <path d="M 230.206502 148.863604 
L 230.206502 135.356027 
" clip-path="url(#p77d1ecda3e)" style="fill: none; stroke: #002d9c; stroke-width: 0.536719; stroke-linecap: square"/>
   </g>
   <g id="line2d_18">
    <path d="M 243.714079 162.371181 
L 243.714079 121.848451 
" clip-path="url(#p77d1ecda3e)" style="fill: none; stroke: #002d9c; stroke-width: 0.536719; stroke-linecap: square"/>
   </g>
   <g id="line2d_19">
    <path d="M 257.221655 162.371181 
L 257.221655 135.356027 
" clip-path="url(#p77d1ecda3e)" style="fill: none; stroke: #002d9c; stroke-width: 0.536719; stroke-linecap: square"/>
   </g>
   <g id="line2d_20">
    <path d="M 284.236809 162.371181 
L 284.236809 135.356027 
" clip-path="url(#p77d1ecda3e)" style="fill: none; stroke: #002d9c; stroke-width: 0.536719; stroke-linecap: square"/>
   </g>
   <g id="line2d_21">
    <path d="M 297.744385 162.371181 
L 297.744385 148.863604 
" clip-path="url(#p77d1ecda3e)" style="fill: none; stroke: #002d9c; stroke-width: 0.536719; stroke-linecap: square"/>
   </g>
   <g id="line2d_22">
    <path d="M 324.759539 135.356027 
L 324.759539 121.848451 
" clip-path="url(#p77d1ecda3e)" style="fill: none; stroke: #002d9c; stroke-width: 0.536719; stroke-linecap: square"/>
   </g>
   <g id="line2d_23">
    <path d="M 324.759539 162.371181 
L 324.759539 148.863604 
" clip-path="url(#p77d1ecda3e)" style="fill: none; stroke: #002d9c; stroke-width: 0.536719; stroke-linecap: square"/>
   </g>
   <g id="line2d_24">
    <path d="M 351.774692 135.356027 
L 351.774692 121.848451 
" clip-path="url(#p77d1ecda3e)" style="fill: none; stroke: #002d9c; stroke-width: 0.536719; stroke-linecap: square"/>
   </g>
   <g id="line2d_25">
    <path d="M 365.282269 148.863604 
L 365.282269 121.848451 
" clip-path="url(#p77d1ecda3e)" style="fill: none; stroke: #002d9c; stroke-width: 0.536719; stroke-linecap: square"/>
   </g>
   <g id="line2d_26">
    <path d="M 392.297423 148.863604 
L 392.297423 121.848451 
" clip-path="url(#p77d1ecda3e)" style="fill: none; stroke: #002d9c; stroke-width: 0.536719; stroke-linecap: square"/>
   </g>
   <g id="line2d_27">
    <path d="M 405.804999 148.863604 
L 405.804999 135.356027 
" clip-path="url(#p77d1ecda3e)" style="fill: none; stroke: #002d9c; stroke-width: 0.536719; stroke-linecap: square"/>
   </g>
   <g id="line2d_28">
    <path d="M 81.623158 229.909065 
L 81.623158 189.386334 
" clip-path="url(#p77d1ecda3e)" style="fill: none; stroke: #002d9c; stroke-width: 0.536719; stroke-linecap: square"/>
   </g>
   <g id="line2d_29">
    <path d="M 108.638311 216.401488 
L 108.638311 202.893911 
" clip-path="url(#p77d1ecda3e)" style="fill: none; stroke: #002d9c; stroke-width: 0.536719; stroke-linecap: square"/>
   </g>
   <g id="line2d_30">
    <path d="M 122.145888 229.909065 
L 122.145888 189.386334 
" clip-path="url(#p77d1ecda3e)" style="fill: none; stroke: #002d9c; stroke-width: 0.536719; stroke-linecap: square"/>
   </g>
   <g id="line2d_31">
    <path d="M 135.653465 229.909065 
L 135.653465 202.893911 
" clip-path="url(#p77d1ecda3e)" style="fill: none; stroke: #002d9c; stroke-width: 0.536719; stroke-linecap: square"/>
   </g>
   <g id="line2d_32">
    <path d="M 162.668618 229.909065 
L 162.668618 202.893911 
" clip-path="url(#p77d1ecda3e)" style="fill: none; stroke: #002d9c; stroke-width: 0.536719; stroke-linecap: square"/>
   </g>
   <g id="line2d_33">
    <path d="M 176.176195 229.909065 
L 176.176195 216.401488 
" clip-path="url(#p77d1ecda3e)" style="fill: none; stroke: #002d9c; stroke-width: 0.536719; stroke-linecap: square"/>
   </g>
   <g id="line2d_34">
    <path d="M 203.191348 229.909065 
L 203.191348 216.401488 
" clip-path="url(#p77d1ecda3e)" style="fill: none; stroke: #002d9c; stroke-width: 0.536719; stroke-linecap: square"/>
   </g>
   <g id="patch_4">
    <path d="M 77.233195 126.238413 
L 86.01312 126.238413 
L 86.01312 117.458488 
L 77.233195 117.458488 
z
" clip-path="url(#p77d1ecda3e)" style="fill: #fa4d56; stroke: #fa4d56; stroke-width: 0.402539; stroke-linejoin: miter"/>
   </g>
   <g id="patch_5">
    <path d="M 77.233195 139.74599 
L 86.01312 139.74599 
L 86.01312 130.966065 
L 77.233195 130.966065 
z
" clip-path="url(#p77d1ecda3e)" style="fill: #fa4d56; stroke: #fa4d56; stroke-width: 0.402539; stroke-linejoin: miter"/>
   </g>
   <g id="patch_6">
    <path d="M 77.233195 153.253567 
L 86.01312 153.253567 
L 86.01312 144.473642 
L 77.233195 144.473642 
z
" clip-path="url(#p77d1ecda3e)" style="fill: #fa4d56; stroke: #fa4d56; stroke-width: 0.402539; stroke-linejoin: miter"/>
   </g>
   <g id="patch_7">
    <path d="M 77.233195 166.761143 
L 86.01312 166.761143 
L 86.01312 157.981218 
L 77.233195 157.981218 
z
" clip-path="url(#p77d1ecda3e)" style="fill: #fa4d56; stroke: #fa4d56; stroke-width: 0.402539; stroke-linejoin: miter"/>
   </g>
   <g id="patch_8">
    <path d="M 90.740772 126.238413 
L 99.520697 126.238413 
L 99.520697 117.458488 
L 90.740772 117.458488 
z
" clip-path="url(#p77d1ecda3e)" style="fill: #33b1ff; stroke: #33b1ff; stroke-width: 0.402539; stroke-linejoin: miter"/>
   </g>
   <g id="patch_9">
    <path d="M 90.740772 139.74599 
L 99.520697 139.74599 
L 99.520697 130.966065 
L 90.740772 130.966065 
z
" clip-path="url(#p77d1ecda3e)" style="fill: #33b1ff; stroke: #33b1ff; stroke-width: 0.402539; stroke-linejoin: miter"/>
   </g>
   <g id="patch_10">
    <path d="M 90.740772 153.253567 
L 99.520697 153.253567 
L 99.520697 144.473642 
L 90.740772 144.473642 
z
" clip-path="url(#p77d1ecda3e)" style="fill: #33b1ff; stroke: #33b1ff; stroke-width: 0.402539; stroke-linejoin: miter"/>
   </g>
   <g id="patch_11">
    <path d="M 90.740772 166.761143 
L 99.520697 166.761143 
L 99.520697 157.981218 
L 90.740772 157.981218 
z
" clip-path="url(#p77d1ecda3e)" style="fill: #33b1ff; stroke: #33b1ff; stroke-width: 0.402539; stroke-linejoin: miter"/>
   </g>
   <g id="patch_12">
    <path d="M 108.638311 123.165439 
C 108.987581 123.165439 109.322592 123.026673 109.569563 122.779702 
C 109.816534 122.532732 109.9553 122.19772 109.9553 121.848451 
C 109.9553 121.499181 109.816534 121.16417 109.569563 120.917199 
C 109.322592 120.670228 108.987581 120.531462 108.638311 120.531462 
C 108.289042 120.531462 107.95403 120.670228 107.707059 120.917199 
C 107.460089 121.16417 107.321322 121.499181 107.321322 121.848451 
C 107.321322 122.19772 107.460089 122.532732 107.707059 122.779702 
C 107.95403 123.026673 108.289042 123.165439 108.638311 123.165439 
z
" clip-path="url(#p77d1ecda3e)" style="fill: #002d9c; stroke: #002d9c; stroke-width: 0.402539; stroke-linejoin: miter"/>
   </g>
   <g id="patch_13">
    <path d="M 108.638311 138.429001 
C 109.453273 138.429001 110.234966 138.105213 110.811232 137.528948 
C 111.387497 136.952683 111.711285 136.17099 111.711285 135.356027 
C 111.711285 134.541065 111.387497 133.759372 110.811232 133.183107 
C 110.234966 132.606842 109.453273 132.283054 108.638311 132.283054 
C 107.823349 132.283054 107.041656 132.606842 106.465391 133.183107 
C 105.889125 133.759372 105.565337 134.541065 105.565337 135.356027 
C 105.565337 136.17099 105.889125 136.952683 106.465391 137.528948 
C 107.041656 138.105213 107.823349 138.429001 108.638311 138.429001 
z
" clip-path="url(#p77d1ecda3e)" style="fill: #002d9c; stroke: #002d9c; stroke-width: 0.536719; stroke-linejoin: miter"/>
   </g>
   <g id="patch_14">
    <path d="M 117.755925 139.74599 
L 126.53585 139.74599 
L 126.53585 130.966065 
L 117.755925 130.966065 
z
" clip-path="url(#p77d1ecda3e)" style="fill: #33b1ff; stroke: #33b1ff; stroke-width: 0.402539; stroke-linejoin: miter"/>
   </g>
   <g id="patch_15">
    <path d="M 135.653465 123.165439 
C 136.002734 123.165439 136.337745 123.026673 136.584716 122.779702 
C 136.831687 122.532732 136.970453 122.19772 136.970453 121.848451 
C 136.970453 121.499181 136.831687 121.16417 136.584716 120.917199 
C 136.337745 120.670228 136.002734 120.531462 135.653465 120.531462 
C 135.304195 120.531462 134.969184 120.670228 134.722213 120.917199 
C 134.475242 121.16417 134.336476 121.499181 134.336476 121.848451 
C 134.336476 122.19772 134.475242 122.532732 134.722213 122.779702 
C 134.969184 123.026673 135.304195 123.165439 135.653465 123.165439 
z
" clip-path="url(#p77d1ecda3e)" style="fill: #002d9c; stroke: #002d9c; stroke-width: 0.402539; stroke-linejoin: miter"/>
   </g>
   <g id="patch_16">
    <path d="M 135.653465 138.429001 
C 136.468427 138.429001 137.25012 138.105213 137.826385 137.528948 
C 138.40265 136.952683 138.726438 136.17099 138.726438 135.356027 
C 138.726438 134.541065 138.40265 133.759372 137.826385 133.183107 
C 137.25012 132.606842 136.468427 132.283054 135.653465 132.283054 
C 134.838502 132.283054 134.056809 132.606842 133.480544 133.183107 
C 132.904279 133.759372 132.580491 134.541065 132.580491 135.356027 
C 132.580491 136.17099 132.904279 136.952683 133.480544 137.528948 
C 134.056809 138.105213 134.838502 138.429001 135.653465 138.429001 
z
" clip-path="url(#p77d1ecda3e)" style="fill: #002d9c; stroke: #002d9c; stroke-width: 0.536719; stroke-linejoin: miter"/>
   </g>
   <g id="patch_17">
    <path d="M 149.161041 123.165439 
C 149.510311 123.165439 149.845322 123.026673 150.092293 122.779702 
C 150.339264 122.532732 150.47803 122.19772 150.47803 121.848451 
C 150.47803 121.499181 150.339264 121.16417 150.092293 120.917199 
C 149.845322 120.670228 149.510311 120.531462 149.161041 120.531462 
C 148.811772 120.531462 148.476761 120.670228 148.22979 120.917199 
C 147.982819 121.16417 147.844053 121.499181 147.844053 121.848451 
C 147.844053 122.19772 147.982819 122.532732 148.22979 122.779702 
C 148.476761 123.026673 148.811772 123.165439 149.161041 123.165439 
z
" clip-path="url(#p77d1ecda3e)" style="fill: #002d9c; stroke: #002d9c; stroke-width: 0.402539; stroke-linejoin: miter"/>
   </g>
   <g id="patch_18">
    <path d="M 149.161041 151.936578 
C 149.976004 151.936578 150.757697 151.61279 151.333962 151.036525 
C 151.910227 150.460259 152.234015 149.678566 152.234015 148.863604 
C 152.234015 148.048642 151.910227 147.266949 151.333962 146.690684 
C 150.757697 146.114418 149.976004 145.79063 149.161041 145.79063 
C 148.346079 145.79063 147.564386 146.114418 146.988121 146.690684 
C 146.411856 147.266949 146.088068 148.048642 146.088068 148.863604 
C 146.088068 149.678566 146.411856 150.460259 146.988121 151.036525 
C 147.564386 151.61279 148.346079 151.936578 149.161041 151.936578 
z
" clip-path="url(#p77d1ecda3e)" style="fill: #002d9c; stroke: #002d9c; stroke-width: 0.536719; stroke-linejoin: miter"/>
   </g>
   <g id="patch_19">
    <path d="M 158.278656 153.253567 
L 167.058581 153.253567 
L 167.058581 144.473642 
L 158.278656 144.473642 
z
" clip-path="url(#p77d1ecda3e)" style="fill: #33b1ff; stroke: #33b1ff; stroke-width: 0.402539; stroke-linejoin: miter"/>
   </g>
   <g id="patch_20">
    <path d="M 176.176195 123.165439 
C 176.525464 123.165439 176.860476 123.026673 177.107447 122.779702 
C 177.354417 122.532732 177.493184 122.19772 177.493184 121.848451 
C 177.493184 121.499181 177.354417 121.16417 177.107447 120.917199 
C 176.860476 120.670228 176.525464 120.531462 176.176195 120.531462 
C 175.826925 120.531462 175.491914 120.670228 175.244943 120.917199 
C 174.997972 121.16417 174.859206 121.499181 174.859206 121.848451 
C 174.859206 122.19772 174.997972 122.532732 175.244943 122.779702 
C 175.491914 123.026673 175.826925 123.165439 176.176195 123.165439 
z
" clip-path="url(#p77d1ecda3e)" style="fill: #002d9c; stroke: #002d9c; stroke-width: 0.402539; stroke-linejoin: miter"/>
   </g>
   <g id="patch_21">
    <path d="M 176.176195 151.936578 
C 176.991157 151.936578 177.77285 151.61279 178.349115 151.036525 
C 178.925381 150.460259 179.249169 149.678566 179.249169 148.863604 
C 179.249169 148.048642 178.925381 147.266949 178.349115 146.690684 
C 177.77285 146.114418 176.991157 145.79063 176.176195 145.79063 
C 175.361233 145.79063 174.57954 146.114418 174.003274 146.690684 
C 173.427009 147.266949 173.103221 148.048642 173.103221 148.863604 
C 173.103221 149.678566 173.427009 150.460259 174.003274 151.036525 
C 174.57954 151.61279 175.361233 151.936578 176.176195 151.936578 
z
" clip-path="url(#p77d1ecda3e)" style="fill: #002d9c; stroke: #002d9c; stroke-width: 0.536719; stroke-linejoin: miter"/>
   </g>
   <g id="patch_22">
    <path d="M 189.683772 136.673016 
C 190.033041 136.673016 190.368052 136.53425 190.615023 136.287279 
C 190.861994 136.040308 191.00076 135.705297 191.00076 135.356027 
C 191.00076 135.006758 190.861994 134.671747 190.615023 134.424776 
C 190.368052 134.177805 190.033041 134.039039 189.683772 134.039039 
C 189.334502 134.039039 188.999491 134.177805 188.75252 134.424776 
C 188.505549 134.671747 188.366783 135.006758 188.366783 135.356027 
C 188.366783 135.705297 188.505549 136.040308 188.75252 136.287279 
C 188.999491 136.53425 189.334502 136.673016 189.683772 136.673016 
z
" clip-path="url(#p77d1ecda3e)" style="fill: #002d9c; stroke: #002d9c; stroke-width: 0.402539; stroke-linejoin: miter"/>
   </g>
   <g id="patch_23">
    <path d="M 189.683772 151.936578 
C 190.498734 151.936578 191.280427 151.61279 191.856692 151.036525 
C 192.432957 150.460259 192.756745 149.678566 192.756745 148.863604 
C 192.756745 148.048642 192.432957 147.266949 191.856692 146.690684 
C 191.280427 146.114418 190.498734 145.79063 189.683772 145.79063 
C 188.868809 145.79063 188.087116 146.114418 187.510851 146.690684 
C 186.934586 147.266949 186.610798 148.048642 186.610798 148.863604 
C 186.610798 149.678566 186.934586 150.460259 187.510851 151.036525 
C 188.087116 151.61279 188.868809 151.936578 189.683772 151.936578 
z
" clip-path="url(#p77d1ecda3e)" style="fill: #002d9c; stroke: #002d9c; stroke-width: 0.536719; stroke-linejoin: miter"/>
   </g>
   <g id="patch_24">
    <path d="M 203.191348 123.165439 
C 203.540618 123.165439 203.875629 123.026673 204.1226 122.779702 
C 204.369571 122.532732 204.508337 122.19772 204.508337 121.848451 
C 204.508337 121.499181 204.369571 121.16417 204.1226 120.917199 
C 203.875629 120.670228 203.540618 120.531462 203.191348 120.531462 
C 202.842079 120.531462 202.507067 120.670228 202.260097 120.917199 
C 202.013126 121.16417 201.87436 121.499181 201.87436 121.848451 
C 201.87436 122.19772 202.013126 122.532732 202.260097 122.779702 
C 202.507067 123.026673 202.842079 123.165439 203.191348 123.165439 
z
" clip-path="url(#p77d1ecda3e)" style="fill: #002d9c; stroke: #002d9c; stroke-width: 0.402539; stroke-linejoin: miter"/>
   </g>
   <g id="patch_25">
    <path d="M 203.191348 165.444155 
C 204.00631 165.444155 204.788004 165.120367 205.364269 164.544101 
C 205.940534 163.967836 206.264322 163.186143 206.264322 162.371181 
C 206.264322 161.556219 205.940534 160.774526 205.364269 160.19826 
C 204.788004 159.621995 204.00631 159.298207 203.191348 159.298207 
C 202.376386 159.298207 201.594693 159.621995 201.018428 160.19826 
C 200.442163 160.774526 200.118375 161.556219 200.118375 162.371181 
C 200.118375 163.186143 200.442163 163.967836 201.018428 164.544101 
C 201.594693 165.120367 202.376386 165.444155 203.191348 165.444155 
z
" clip-path="url(#p77d1ecda3e)" style="fill: #002d9c; stroke: #002d9c; stroke-width: 0.536719; stroke-linejoin: miter"/>
   </g>
   <g id="patch_26">
    <path d="M 212.308963 153.253567 
L 221.088887 153.253567 
L 221.088887 144.473642 
L 212.308963 144.473642 
z
" clip-path="url(#p77d1ecda3e)" style="fill: #33b1ff; stroke: #33b1ff; stroke-width: 0.402539; stroke-linejoin: miter"/>
   </g>
   <g id="patch_27">
    <path d="M 212.308963 166.761143 
L 221.088887 166.761143 
L 221.088887 157.981218 
L 212.308963 157.981218 
z
" clip-path="url(#p77d1ecda3e)" style="fill: #33b1ff; stroke: #33b1ff; stroke-width: 0.402539; stroke-linejoin: miter"/>
   </g>
   <g id="patch_28">
    <path d="M 230.206502 136.673016 
C 230.555771 136.673016 230.890783 136.53425 231.137753 136.287279 
C 231.384724 136.040308 231.523491 135.705297 231.523491 135.356027 
C 231.523491 135.006758 231.384724 134.671747 231.137753 134.424776 
C 230.890783 134.177805 230.555771 134.039039 230.206502 134.039039 
C 229.857232 134.039039 229.522221 134.177805 229.27525 134.424776 
C 229.028279 134.671747 228.889513 135.006758 228.889513 135.356027 
C 228.889513 135.705297 229.028279 136.040308 229.27525 136.287279 
C 229.522221 136.53425 229.857232 136.673016 230.206502 136.673016 
z
" clip-path="url(#p77d1ecda3e)" style="fill: #002d9c; stroke: #002d9c; stroke-width: 0.402539; stroke-linejoin: miter"/>
   </g>
   <g id="patch_29">
    <path d="M 230.206502 151.936578 
C 231.021464 151.936578 231.803157 151.61279 232.379422 151.036525 
C 232.955688 150.460259 233.279475 149.678566 233.279475 148.863604 
C 233.279475 148.048642 232.955688 147.266949 232.379422 146.690684 
C 231.803157 146.114418 231.021464 145.79063 230.206502 145.79063 
C 229.39154 145.79063 228.609847 146.114418 228.033581 146.690684 
C 227.457316 147.266949 227.133528 148.048642 227.133528 148.863604 
C 227.133528 149.678566 227.457316 150.460259 228.033581 151.036525 
C 228.609847 151.61279 229.39154 151.936578 230.206502 151.936578 
z
" clip-path="url(#p77d1ecda3e)" style="fill: #002d9c; stroke: #002d9c; stroke-width: 0.536719; stroke-linejoin: miter"/>
   </g>
   <g id="patch_30">
    <path d="M 243.714079 123.165439 
C 244.063348 123.165439 244.398359 123.026673 244.64533 122.779702 
C 244.892301 122.532732 245.031067 122.19772 245.031067 121.848451 
C 245.031067 121.499181 244.892301 121.16417 244.64533 120.917199 
C 244.398359 120.670228 244.063348 120.531462 243.714079 120.531462 
C 243.364809 120.531462 243.029798 120.670228 242.782827 120.917199 
C 242.535856 121.16417 242.39709 121.499181 242.39709 121.848451 
C 242.39709 122.19772 242.535856 122.532732 242.782827 122.779702 
C 243.029798 123.026673 243.364809 123.165439 243.714079 123.165439 
z
" clip-path="url(#p77d1ecda3e)" style="fill: #002d9c; stroke: #002d9c; stroke-width: 0.402539; stroke-linejoin: miter"/>
   </g>
   <g id="patch_31">
    <path d="M 243.714079 165.444155 
C 244.529041 165.444155 245.310734 165.120367 245.886999 164.544101 
C 246.463264 163.967836 246.787052 163.186143 246.787052 162.371181 
C 246.787052 161.556219 246.463264 160.774526 245.886999 160.19826 
C 245.310734 159.621995 244.529041 159.298207 243.714079 159.298207 
C 242.899116 159.298207 242.117423 159.621995 241.541158 160.19826 
C 240.964893 160.774526 240.641105 161.556219 240.641105 162.371181 
C 240.641105 163.186143 240.964893 163.967836 241.541158 164.544101 
C 242.117423 165.120367 242.899116 165.444155 243.714079 165.444155 
z
" clip-path="url(#p77d1ecda3e)" style="fill: #002d9c; stroke: #002d9c; stroke-width: 0.536719; stroke-linejoin: miter"/>
   </g>
   <g id="patch_32">
    <path d="M 252.831693 126.238413 
L 261.611618 126.238413 
L 261.611618 117.458488 
L 252.831693 117.458488 
z
" clip-path="url(#p77d1ecda3e)" style="fill: #fa4d56; stroke: #fa4d56; stroke-width: 0.402539; stroke-linejoin: miter"/>
   </g>
   <g id="patch_33">
    <path d="M 257.221655 136.673016 
C 257.570925 136.673016 257.905936 136.53425 258.152907 136.287279 
C 258.399878 136.040308 258.538644 135.705297 258.538644 135.356027 
C 258.538644 135.006758 258.399878 134.671747 258.152907 134.424776 
C 257.905936 134.177805 257.570925 134.039039 257.221655 134.039039 
C 256.872386 134.039039 256.537374 134.177805 256.290404 134.424776 
C 256.043433 134.671747 255.904667 135.006758 255.904667 135.356027 
C 255.904667 135.705297 256.043433 136.040308 256.290404 136.287279 
C 256.537374 136.53425 256.872386 136.673016 257.221655 136.673016 
z
" clip-path="url(#p77d1ecda3e)" style="fill: #002d9c; stroke: #002d9c; stroke-width: 0.402539; stroke-linejoin: miter"/>
   </g>
   <g id="patch_34">
    <path d="M 257.221655 165.444155 
C 258.036617 165.444155 258.818311 165.120367 259.394576 164.544101 
C 259.970841 163.967836 260.294629 163.186143 260.294629 162.371181 
C 260.294629 161.556219 259.970841 160.774526 259.394576 160.19826 
C 258.818311 159.621995 258.036617 159.298207 257.221655 159.298207 
C 256.406693 159.298207 255.625 159.621995 255.048735 160.19826 
C 254.472469 160.774526 254.148682 161.556219 254.148682 162.371181 
C 254.148682 163.186143 254.472469 163.967836 255.048735 164.544101 
C 255.625 165.120367 256.406693 165.444155 257.221655 165.444155 
z
" clip-path="url(#p77d1ecda3e)" style="fill: #002d9c; stroke: #002d9c; stroke-width: 0.536719; stroke-linejoin: miter"/>
   </g>
   <g id="patch_35">
    <path d="M 266.33927 126.238413 
L 275.119194 126.238413 
L 275.119194 117.458488 
L 266.33927 117.458488 
z
" clip-path="url(#p77d1ecda3e)" style="fill: #33b1ff; stroke: #33b1ff; stroke-width: 0.402539; stroke-linejoin: miter"/>
   </g>
   <g id="patch_36">
    <path d="M 266.33927 166.761143 
L 275.119194 166.761143 
L 275.119194 157.981218 
L 266.33927 157.981218 
z
" clip-path="url(#p77d1ecda3e)" style="fill: #33b1ff; stroke: #33b1ff; stroke-width: 0.402539; stroke-linejoin: miter"/>
   </g>
   <g id="patch_37">
    <path d="M 284.236809 136.673016 
C 284.586078 136.673016 284.92109 136.53425 285.16806 136.287279 
C 285.415031 136.040308 285.553797 135.705297 285.553797 135.356027 
C 285.553797 135.006758 285.415031 134.671747 285.16806 134.424776 
C 284.92109 134.177805 284.586078 134.039039 284.236809 134.039039 
C 283.887539 134.039039 283.552528 134.177805 283.305557 134.424776 
C 283.058586 134.671747 282.91982 135.006758 282.91982 135.356027 
C 282.91982 135.705297 283.058586 136.040308 283.305557 136.287279 
C 283.552528 136.53425 283.887539 136.673016 284.236809 136.673016 
z
" clip-path="url(#p77d1ecda3e)" style="fill: #002d9c; stroke: #002d9c; stroke-width: 0.402539; stroke-linejoin: miter"/>
   </g>
   <g id="patch_38">
    <path d="M 284.236809 165.444155 
C 285.051771 165.444155 285.833464 165.120367 286.409729 164.544101 
C 286.985995 163.967836 287.309782 163.186143 287.309782 162.371181 
C 287.309782 161.556219 286.985995 160.774526 286.409729 160.19826 
C 285.833464 159.621995 285.051771 159.298207 284.236809 159.298207 
C 283.421847 159.298207 282.640153 159.621995 282.063888 160.19826 
C 281.487623 160.774526 281.163835 161.556219 281.163835 162.371181 
C 281.163835 163.186143 281.487623 163.967836 282.063888 164.544101 
C 282.640153 165.120367 283.421847 165.444155 284.236809 165.444155 
z
" clip-path="url(#p77d1ecda3e)" style="fill: #002d9c; stroke: #002d9c; stroke-width: 0.536719; stroke-linejoin: miter"/>
   </g>
   <g id="patch_39">
    <path d="M 293.354423 139.74599 
L 302.134348 139.74599 
L 302.134348 130.966065 
L 293.354423 130.966065 
z
" clip-path="url(#p77d1ecda3e)" style="fill: #fa4d56; stroke: #fa4d56; stroke-width: 0.402539; stroke-linejoin: miter"/>
   </g>
   <g id="patch_40">
    <path d="M 297.744385 150.180593 
C 298.093655 150.180593 298.428666 150.041827 298.675637 149.794856 
C 298.922608 149.547885 299.061374 149.212874 299.061374 148.863604 
C 299.061374 148.514335 298.922608 148.179323 298.675637 147.932353 
C 298.428666 147.685382 298.093655 147.546615 297.744385 147.546615 
C 297.395116 147.546615 297.060105 147.685382 296.813134 147.932353 
C 296.566163 148.179323 296.427397 148.514335 296.427397 148.863604 
C 296.427397 149.212874 296.566163 149.547885 296.813134 149.794856 
C 297.060105 150.041827 297.395116 150.180593 297.744385 150.180593 
z
" clip-path="url(#p77d1ecda3e)" style="fill: #002d9c; stroke: #002d9c; stroke-width: 0.402539; stroke-linejoin: miter"/>
   </g>
   <g id="patch_41">
    <path d="M 297.744385 165.444155 
C 298.559348 165.444155 299.341041 165.120367 299.917306 164.544101 
C 300.493571 163.967836 300.817359 163.186143 300.817359 162.371181 
C 300.817359 161.556219 300.493571 160.774526 299.917306 160.19826 
C 299.341041 159.621995 298.559348 159.298207 297.744385 159.298207 
C 296.929423 159.298207 296.14773 159.621995 295.571465 160.19826 
C 294.9952 160.774526 294.671412 161.556219 294.671412 162.371181 
C 294.671412 163.186143 294.9952 163.967836 295.571465 164.544101 
C 296.14773 165.120367 296.929423 165.444155 297.744385 165.444155 
z
" clip-path="url(#p77d1ecda3e)" style="fill: #002d9c; stroke: #002d9c; stroke-width: 0.536719; stroke-linejoin: miter"/>
   </g>
   <g id="patch_42">
    <path d="M 306.862 139.74599 
L 315.641925 139.74599 
L 315.641925 130.966065 
L 306.862 130.966065 
z
" clip-path="url(#p77d1ecda3e)" style="fill: #33b1ff; stroke: #33b1ff; stroke-width: 0.402539; stroke-linejoin: miter"/>
   </g>
   <g id="patch_43">
    <path d="M 306.862 166.761143 
L 315.641925 166.761143 
L 315.641925 157.981218 
L 306.862 157.981218 
z
" clip-path="url(#p77d1ecda3e)" style="fill: #33b1ff; stroke: #33b1ff; stroke-width: 0.402539; stroke-linejoin: miter"/>
   </g>
   <g id="patch_44">
    <path d="M 324.759539 123.165439 
C 325.108808 123.165439 325.44382 123.026673 325.690791 122.779702 
C 325.937761 122.532732 326.076528 122.19772 326.076528 121.848451 
C 326.076528 121.499181 325.937761 121.16417 325.690791 120.917199 
C 325.44382 120.670228 325.108808 120.531462 324.759539 120.531462 
C 324.410269 120.531462 324.075258 120.670228 323.828287 120.917199 
C 323.581316 121.16417 323.44255 121.499181 323.44255 121.848451 
C 323.44255 122.19772 323.581316 122.532732 323.828287 122.779702 
C 324.075258 123.026673 324.410269 123.165439 324.759539 123.165439 
z
" clip-path="url(#p77d1ecda3e)" style="fill: #002d9c; stroke: #002d9c; stroke-width: 0.402539; stroke-linejoin: miter"/>
   </g>
   <g id="patch_45">
    <path d="M 324.759539 138.429001 
C 325.574501 138.429001 326.356194 138.105213 326.932459 137.528948 
C 327.508725 136.952683 327.832513 136.17099 327.832513 135.356027 
C 327.832513 134.541065 327.508725 133.759372 326.932459 133.183107 
C 326.356194 132.606842 325.574501 132.283054 324.759539 132.283054 
C 323.944577 132.283054 323.162884 132.606842 322.586618 133.183107 
C 322.010353 133.759372 321.686565 134.541065 321.686565 135.356027 
C 321.686565 136.17099 322.010353 136.952683 322.586618 137.528948 
C 323.162884 138.105213 323.944577 138.429001 324.759539 138.429001 
z
" clip-path="url(#p77d1ecda3e)" style="fill: #002d9c; stroke: #002d9c; stroke-width: 0.536719; stroke-linejoin: miter"/>
   </g>
   <g id="patch_46">
    <path d="M 324.759539 150.180593 
C 325.108808 150.180593 325.44382 150.041827 325.690791 149.794856 
C 325.937761 149.547885 326.076528 149.212874 326.076528 148.863604 
C 326.076528 148.514335 325.937761 148.179323 325.690791 147.932353 
C 325.44382 147.685382 325.108808 147.546615 324.759539 147.546615 
C 324.410269 147.546615 324.075258 147.685382 323.828287 147.932353 
C 323.581316 148.179323 323.44255 148.514335 323.44255 148.863604 
C 323.44255 149.212874 323.581316 149.547885 323.828287 149.794856 
C 324.075258 150.041827 324.410269 150.180593 324.759539 150.180593 
z
" clip-path="url(#p77d1ecda3e)" style="fill: #002d9c; stroke: #002d9c; stroke-width: 0.402539; stroke-linejoin: miter"/>
   </g>
   <g id="patch_47">
    <path d="M 324.759539 165.444155 
C 325.574501 165.444155 326.356194 165.120367 326.932459 164.544101 
C 327.508725 163.967836 327.832513 163.186143 327.832513 162.371181 
C 327.832513 161.556219 327.508725 160.774526 326.932459 160.19826 
C 326.356194 159.621995 325.574501 159.298207 324.759539 159.298207 
C 323.944577 159.298207 323.162884 159.621995 322.586618 160.19826 
C 322.010353 160.774526 321.686565 161.556219 321.686565 162.371181 
C 321.686565 163.186143 322.010353 163.967836 322.586618 164.544101 
C 323.162884 165.120367 323.944577 165.444155 324.759539 165.444155 
z
" clip-path="url(#p77d1ecda3e)" style="fill: #002d9c; stroke: #002d9c; stroke-width: 0.536719; stroke-linejoin: miter"/>
   </g>
   <g id="patch_48">
    <path d="M 333.877153 139.74599 
L 342.657078 139.74599 
L 342.657078 130.966065 
L 333.877153 130.966065 
z
" clip-path="url(#p77d1ecda3e)" style="fill: #33b1ff; stroke: #33b1ff; stroke-width: 0.402539; stroke-linejoin: miter"/>
   </g>
   <g id="patch_49">
    <path d="M 333.877153 153.253567 
L 342.657078 153.253567 
L 342.657078 144.473642 
L 333.877153 144.473642 
z
" clip-path="url(#p77d1ecda3e)" style="fill: #fa4d56; stroke: #fa4d56; stroke-width: 0.402539; stroke-linejoin: miter"/>
   </g>
   <g id="patch_50">
    <path d="M 333.877153 166.761143 
L 342.657078 166.761143 
L 342.657078 157.981218 
L 333.877153 157.981218 
z
" clip-path="url(#p77d1ecda3e)" style="fill: #fa4d56; stroke: #fa4d56; stroke-width: 0.402539; stroke-linejoin: miter"/>
   </g>
   <g id="patch_51">
    <path d="M 351.774692 123.165439 
C 352.123962 123.165439 352.458973 123.026673 352.705944 122.779702 
C 352.952915 122.532732 353.091681 122.19772 353.091681 121.848451 
C 353.091681 121.499181 352.952915 121.16417 352.705944 120.917199 
C 352.458973 120.670228 352.123962 120.531462 351.774692 120.531462 
C 351.425423 120.531462 351.090412 120.670228 350.843441 120.917199 
C 350.59647 121.16417 350.457704 121.499181 350.457704 121.848451 
C 350.457704 122.19772 350.59647 122.532732 350.843441 122.779702 
C 351.090412 123.026673 351.425423 123.165439 351.774692 123.165439 
z
" clip-path="url(#p77d1ecda3e)" style="fill: #002d9c; stroke: #002d9c; stroke-width: 0.402539; stroke-linejoin: miter"/>
   </g>
   <g id="patch_52">
    <path d="M 351.774692 138.429001 
C 352.589655 138.429001 353.371348 138.105213 353.947613 137.528948 
C 354.523878 136.952683 354.847666 136.17099 354.847666 135.356027 
C 354.847666 134.541065 354.523878 133.759372 353.947613 133.183107 
C 353.371348 132.606842 352.589655 132.283054 351.774692 132.283054 
C 350.95973 132.283054 350.178037 132.606842 349.601772 133.183107 
C 349.025507 133.759372 348.701719 134.541065 348.701719 135.356027 
C 348.701719 136.17099 349.025507 136.952683 349.601772 137.528948 
C 350.178037 138.105213 350.95973 138.429001 351.774692 138.429001 
z
" clip-path="url(#p77d1ecda3e)" style="fill: #002d9c; stroke: #002d9c; stroke-width: 0.536719; stroke-linejoin: miter"/>
   </g>
   <g id="patch_53">
    <path d="M 347.38473 153.253567 
L 356.164655 153.253567 
L 356.164655 144.473642 
L 347.38473 144.473642 
z
" clip-path="url(#p77d1ecda3e)" style="fill: #33b1ff; stroke: #33b1ff; stroke-width: 0.402539; stroke-linejoin: miter"/>
   </g>
   <g id="patch_54">
    <path d="M 347.38473 166.761143 
L 356.164655 166.761143 
L 356.164655 157.981218 
L 347.38473 157.981218 
z
" clip-path="url(#p77d1ecda3e)" style="fill: #33b1ff; stroke: #33b1ff; stroke-width: 0.402539; stroke-linejoin: miter"/>
   </g>
   <g id="patch_55">
    <path d="M 365.282269 123.165439 
C 365.631539 123.165439 365.96655 123.026673 366.213521 122.779702 
C 366.460492 122.532732 366.599258 122.19772 366.599258 121.848451 
C 366.599258 121.499181 366.460492 121.16417 366.213521 120.917199 
C 365.96655 120.670228 365.631539 120.531462 365.282269 120.531462 
C 364.933 120.531462 364.597988 120.670228 364.351017 120.917199 
C 364.104047 121.16417 363.96528 121.499181 363.96528 121.848451 
C 363.96528 122.19772 364.104047 122.532732 364.351017 122.779702 
C 364.597988 123.026673 364.933 123.165439 365.282269 123.165439 
z
" clip-path="url(#p77d1ecda3e)" style="fill: #002d9c; stroke: #002d9c; stroke-width: 0.402539; stroke-linejoin: miter"/>
   </g>
   <g id="patch_56">
    <path d="M 365.282269 151.936578 
C 366.097231 151.936578 366.878924 151.61279 367.45519 151.036525 
C 368.031455 150.460259 368.355243 149.678566 368.355243 148.863604 
C 368.355243 148.048642 368.031455 147.266949 367.45519 146.690684 
C 366.878924 146.114418 366.097231 145.79063 365.282269 145.79063 
C 364.467307 145.79063 363.685614 146.114418 363.109349 146.690684 
C 362.533083 147.266949 362.209295 148.048642 362.209295 148.863604 
C 362.209295 149.678566 362.533083 150.460259 363.109349 151.036525 
C 363.685614 151.61279 364.467307 151.936578 365.282269 151.936578 
z
" clip-path="url(#p77d1ecda3e)" style="fill: #002d9c; stroke: #002d9c; stroke-width: 0.536719; stroke-linejoin: miter"/>
   </g>
   <g id="patch_57">
    <path d="M 374.399883 153.253567 
L 383.179808 153.253567 
L 383.179808 144.473642 
L 374.399883 144.473642 
z
" clip-path="url(#p77d1ecda3e)" style="fill: #33b1ff; stroke: #33b1ff; stroke-width: 0.402539; stroke-linejoin: miter"/>
   </g>
   <g id="patch_58">
    <path d="M 392.297423 123.165439 
C 392.646692 123.165439 392.981703 123.026673 393.228674 122.779702 
C 393.475645 122.532732 393.614411 122.19772 393.614411 121.848451 
C 393.614411 121.499181 393.475645 121.16417 393.228674 120.917199 
C 392.981703 120.670228 392.646692 120.531462 392.297423 120.531462 
C 391.948153 120.531462 391.613142 120.670228 391.366171 120.917199 
C 391.1192 121.16417 390.980434 121.499181 390.980434 121.848451 
C 390.980434 122.19772 391.1192 122.532732 391.366171 122.779702 
C 391.613142 123.026673 391.948153 123.165439 392.297423 123.165439 
z
" clip-path="url(#p77d1ecda3e)" style="fill: #002d9c; stroke: #002d9c; stroke-width: 0.402539; stroke-linejoin: miter"/>
   </g>
   <g id="patch_59">
    <path d="M 392.297423 151.936578 
C 393.112385 151.936578 393.894078 151.61279 394.470343 151.036525 
C 395.046608 150.460259 395.370396 149.678566 395.370396 148.863604 
C 395.370396 148.048642 395.046608 147.266949 394.470343 146.690684 
C 393.894078 146.114418 393.112385 145.79063 392.297423 145.79063 
C 391.48246 145.79063 390.700767 146.114418 390.124502 146.690684 
C 389.548237 147.266949 389.224449 148.048642 389.224449 148.863604 
C 389.224449 149.678566 389.548237 150.460259 390.124502 151.036525 
C 390.700767 151.61279 391.48246 151.936578 392.297423 151.936578 
z
" clip-path="url(#p77d1ecda3e)" style="fill: #002d9c; stroke: #002d9c; stroke-width: 0.536719; stroke-linejoin: miter"/>
   </g>
   <g id="patch_60">
    <path d="M 405.804999 136.673016 
C 406.154269 136.673016 406.48928 136.53425 406.736251 136.287279 
C 406.983222 136.040308 407.121988 135.705297 407.121988 135.356027 
C 407.121988 135.006758 406.983222 134.671747 406.736251 134.424776 
C 406.48928 134.177805 406.154269 134.039039 405.804999 134.039039 
C 405.45573 134.039039 405.120719 134.177805 404.873748 134.424776 
C 404.626777 134.671747 404.488011 135.006758 404.488011 135.356027 
C 404.488011 135.705297 404.626777 136.040308 404.873748 136.287279 
C 405.120719 136.53425 405.45573 136.673016 405.804999 136.673016 
z
" clip-path="url(#p77d1ecda3e)" style="fill: #002d9c; stroke: #002d9c; stroke-width: 0.402539; stroke-linejoin: miter"/>
   </g>
   <g id="patch_61">
    <path d="M 405.804999 151.936578 
C 406.619962 151.936578 407.401655 151.61279 407.97792 151.036525 
C 408.554185 150.460259 408.877973 149.678566 408.877973 148.863604 
C 408.877973 148.048642 408.554185 147.266949 407.97792 146.690684 
C 407.401655 146.114418 406.619962 145.79063 405.804999 145.79063 
C 404.990037 145.79063 404.208344 146.114418 403.632079 146.690684 
C 403.055814 147.266949 402.732026 148.048642 402.732026 148.863604 
C 402.732026 149.678566 403.055814 150.460259 403.632079 151.036525 
C 404.208344 151.61279 404.990037 151.936578 405.804999 151.936578 
z
" clip-path="url(#p77d1ecda3e)" style="fill: #002d9c; stroke: #002d9c; stroke-width: 0.536719; stroke-linejoin: miter"/>
   </g>
   <g id="patch_62">
    <path d="M 81.623158 190.703323 
C 81.972427 190.703323 82.307439 190.564557 82.554409 190.317586 
C 82.80138 190.070615 82.940146 189.735604 82.940146 189.386334 
C 82.940146 189.037065 82.80138 188.702054 82.554409 188.455083 
C 82.307439 188.208112 81.972427 188.069346 81.623158 188.069346 
C 81.273888 188.069346 80.938877 188.208112 80.691906 188.455083 
C 80.444935 188.702054 80.306169 189.037065 80.306169 189.386334 
C 80.306169 189.735604 80.444935 190.070615 80.691906 190.317586 
C 80.938877 190.564557 81.273888 190.703323 81.623158 190.703323 
z
" clip-path="url(#p77d1ecda3e)" style="fill: #002d9c; stroke: #002d9c; stroke-width: 0.402539; stroke-linejoin: miter"/>
   </g>
   <g id="patch_63">
    <path d="M 81.623158 232.982038 
C 82.43812 232.982038 83.219813 232.65825 83.796078 232.081985 
C 84.372343 231.50572 84.696131 230.724027 84.696131 229.909065 
C 84.696131 229.094102 84.372343 228.312409 83.796078 227.736144 
C 83.219813 227.159879 82.43812 226.836091 81.623158 226.836091 
C 80.808196 226.836091 80.026502 227.159879 79.450237 227.736144 
C 78.873972 228.312409 78.550184 229.094102 78.550184 229.909065 
C 78.550184 230.724027 78.873972 231.50572 79.450237 232.081985 
C 80.026502 232.65825 80.808196 232.982038 81.623158 232.982038 
z
" clip-path="url(#p77d1ecda3e)" style="fill: #002d9c; stroke: #002d9c; stroke-width: 0.536719; stroke-linejoin: miter"/>
   </g>
   <g id="patch_64">
    <path d="M 90.740772 220.79145 
L 99.520697 220.79145 
L 99.520697 212.011525 
L 90.740772 212.011525 
z
" clip-path="url(#p77d1ecda3e)" style="fill: #33b1ff; stroke: #33b1ff; stroke-width: 0.402539; stroke-linejoin: miter"/>
   </g>
   <g id="patch_65">
    <path d="M 90.740772 234.299027 
L 99.520697 234.299027 
L 99.520697 225.519102 
L 90.740772 225.519102 
z
" clip-path="url(#p77d1ecda3e)" style="fill: #33b1ff; stroke: #33b1ff; stroke-width: 0.402539; stroke-linejoin: miter"/>
   </g>
   <g id="patch_66">
    <path d="M 108.638311 204.2109 
C 108.987581 204.2109 109.322592 204.072134 109.569563 203.825163 
C 109.816534 203.578192 109.9553 203.243181 109.9553 202.893911 
C 109.9553 202.544642 109.816534 202.20963 109.569563 201.962659 
C 109.322592 201.715689 108.987581 201.576922 108.638311 201.576922 
C 108.289042 201.576922 107.95403 201.715689 107.707059 201.962659 
C 107.460089 202.20963 107.321322 202.544642 107.321322 202.893911 
C 107.321322 203.243181 107.460089 203.578192 107.707059 203.825163 
C 107.95403 204.072134 108.289042 204.2109 108.638311 204.2109 
z
" clip-path="url(#p77d1ecda3e)" style="fill: #002d9c; stroke: #002d9c; stroke-width: 0.402539; stroke-linejoin: miter"/>
   </g>
   <g id="patch_67">
    <path d="M 108.638311 219.474462 
C 109.453273 219.474462 110.234966 219.150674 110.811232 218.574408 
C 111.387497 217.998143 111.711285 217.21645 111.711285 216.401488 
C 111.711285 215.586526 111.387497 214.804833 110.811232 214.228567 
C 110.234966 213.652302 109.453273 213.328514 108.638311 213.328514 
C 107.823349 213.328514 107.041656 213.652302 106.465391 214.228567 
C 105.889125 214.804833 105.565337 215.586526 105.565337 216.401488 
C 105.565337 217.21645 105.889125 217.998143 106.465391 218.574408 
C 107.041656 219.150674 107.823349 219.474462 108.638311 219.474462 
z
" clip-path="url(#p77d1ecda3e)" style="fill: #002d9c; stroke: #002d9c; stroke-width: 0.536719; stroke-linejoin: miter"/>
   </g>
   <g id="patch_68">
    <path d="M 122.145888 190.703323 
C 122.495157 190.703323 122.830169 190.564557 123.07714 190.317586 
C 123.32411 190.070615 123.462877 189.735604 123.462877 189.386334 
C 123.462877 189.037065 123.32411 188.702054 123.07714 188.455083 
C 122.830169 188.208112 122.495157 188.069346 122.145888 188.069346 
C 121.796618 188.069346 121.461607 188.208112 121.214636 188.455083 
C 120.967665 188.702054 120.828899 189.037065 120.828899 189.386334 
C 120.828899 189.735604 120.967665 190.070615 121.214636 190.317586 
C 121.461607 190.564557 121.796618 190.703323 122.145888 190.703323 
z
" clip-path="url(#p77d1ecda3e)" style="fill: #002d9c; stroke: #002d9c; stroke-width: 0.402539; stroke-linejoin: miter"/>
   </g>
   <g id="patch_69">
    <path d="M 122.145888 232.982038 
C 122.96085 232.982038 123.742543 232.65825 124.318808 232.081985 
C 124.895074 231.50572 125.218862 230.724027 125.218862 229.909065 
C 125.218862 229.094102 124.895074 228.312409 124.318808 227.736144 
C 123.742543 227.159879 122.96085 226.836091 122.145888 226.836091 
C 121.330926 226.836091 120.549233 227.159879 119.972967 227.736144 
C 119.396702 228.312409 119.072914 229.094102 119.072914 229.909065 
C 119.072914 230.724027 119.396702 231.50572 119.972967 232.081985 
C 120.549233 232.65825 121.330926 232.982038 122.145888 232.982038 
z
" clip-path="url(#p77d1ecda3e)" style="fill: #002d9c; stroke: #002d9c; stroke-width: 0.536719; stroke-linejoin: miter"/>
   </g>
   <g id="patch_70">
    <path d="M 135.653465 204.2109 
C 136.002734 204.2109 136.337745 204.072134 136.584716 203.825163 
C 136.831687 203.578192 136.970453 203.243181 136.970453 202.893911 
C 136.970453 202.544642 136.831687 202.20963 136.584716 201.962659 
C 136.337745 201.715689 136.002734 201.576922 135.653465 201.576922 
C 135.304195 201.576922 134.969184 201.715689 134.722213 201.962659 
C 134.475242 202.20963 134.336476 202.544642 134.336476 202.893911 
C 134.336476 203.243181 134.475242 203.578192 134.722213 203.825163 
C 134.969184 204.072134 135.304195 204.2109 135.653465 204.2109 
z
" clip-path="url(#p77d1ecda3e)" style="fill: #002d9c; stroke: #002d9c; stroke-width: 0.402539; stroke-linejoin: miter"/>
   </g>
   <g id="patch_71">
    <path d="M 135.653465 232.982038 
C 136.468427 232.982038 137.25012 232.65825 137.826385 232.081985 
C 138.40265 231.50572 138.726438 230.724027 138.726438 229.909065 
C 138.726438 229.094102 138.40265 228.312409 137.826385 227.736144 
C 137.25012 227.159879 136.468427 226.836091 135.653465 226.836091 
C 134.838502 226.836091 134.056809 227.159879 133.480544 227.736144 
C 132.904279 228.312409 132.580491 229.094102 132.580491 229.909065 
C 132.580491 230.724027 132.904279 231.50572 133.480544 232.081985 
C 134.056809 232.65825 134.838502 232.982038 135.653465 232.982038 
z
" clip-path="url(#p77d1ecda3e)" style="fill: #002d9c; stroke: #002d9c; stroke-width: 0.536719; stroke-linejoin: miter"/>
   </g>
   <g id="patch_72">
    <path d="M 144.771079 234.299027 
L 153.551004 234.299027 
L 153.551004 225.519102 
L 144.771079 225.519102 
z
" clip-path="url(#p77d1ecda3e)" style="fill: #33b1ff; stroke: #33b1ff; stroke-width: 0.402539; stroke-linejoin: miter"/>
   </g>
   <g id="patch_73">
    <path d="M 162.668618 204.2109 
C 163.017888 204.2109 163.352899 204.072134 163.59987 203.825163 
C 163.846841 203.578192 163.985607 203.243181 163.985607 202.893911 
C 163.985607 202.544642 163.846841 202.20963 163.59987 201.962659 
C 163.352899 201.715689 163.017888 201.576922 162.668618 201.576922 
C 162.319349 201.576922 161.984337 201.715689 161.737366 201.962659 
C 161.490396 202.20963 161.351629 202.544642 161.351629 202.893911 
C 161.351629 203.243181 161.490396 203.578192 161.737366 203.825163 
C 161.984337 204.072134 162.319349 204.2109 162.668618 204.2109 
z
" clip-path="url(#p77d1ecda3e)" style="fill: #002d9c; stroke: #002d9c; stroke-width: 0.402539; stroke-linejoin: miter"/>
   </g>
   <g id="patch_74">
    <path d="M 162.668618 232.982038 
C 163.48358 232.982038 164.265273 232.65825 164.841539 232.081985 
C 165.417804 231.50572 165.741592 230.724027 165.741592 229.909065 
C 165.741592 229.094102 165.417804 228.312409 164.841539 227.736144 
C 164.265273 227.159879 163.48358 226.836091 162.668618 226.836091 
C 161.853656 226.836091 161.071963 227.159879 160.495698 227.736144 
C 159.919432 228.312409 159.595644 229.094102 159.595644 229.909065 
C 159.595644 230.724027 159.919432 231.50572 160.495698 232.081985 
C 161.071963 232.65825 161.853656 232.982038 162.668618 232.982038 
z
" clip-path="url(#p77d1ecda3e)" style="fill: #002d9c; stroke: #002d9c; stroke-width: 0.536719; stroke-linejoin: miter"/>
   </g>
   <g id="patch_75">
    <path d="M 176.176195 217.718477 
C 176.525464 217.718477 176.860476 217.57971 177.107447 217.33274 
C 177.354417 217.085769 177.493184 216.750757 177.493184 216.401488 
C 177.493184 216.052218 177.354417 215.717207 177.107447 215.470236 
C 176.860476 215.223265 176.525464 215.084499 176.176195 215.084499 
C 175.826925 215.084499 175.491914 215.223265 175.244943 215.470236 
C 174.997972 215.717207 174.859206 216.052218 174.859206 216.401488 
C 174.859206 216.750757 174.997972 217.085769 175.244943 217.33274 
C 175.491914 217.57971 175.826925 217.718477 176.176195 217.718477 
z
" clip-path="url(#p77d1ecda3e)" style="fill: #002d9c; stroke: #002d9c; stroke-width: 0.402539; stroke-linejoin: miter"/>
   </g>
   <g id="patch_76">
    <path d="M 176.176195 232.982038 
C 176.991157 232.982038 177.77285 232.65825 178.349115 232.081985 
C 178.925381 231.50572 179.249169 230.724027 179.249169 229.909065 
C 179.249169 229.094102 178.925381 228.312409 178.349115 227.736144 
C 177.77285 227.159879 176.991157 226.836091 176.176195 226.836091 
C 175.361233 226.836091 174.57954 227.159879 174.003274 227.736144 
C 173.427009 228.312409 173.103221 229.094102 173.103221 229.909065 
C 173.103221 230.724027 173.427009 231.50572 174.003274 232.081985 
C 174.57954 232.65825 175.361233 232.982038 176.176195 232.982038 
z
" clip-path="url(#p77d1ecda3e)" style="fill: #002d9c; stroke: #002d9c; stroke-width: 0.536719; stroke-linejoin: miter"/>
   </g>
   <g id="patch_77">
    <path d="M 185.293809 234.299027 
L 194.073734 234.299027 
L 194.073734 225.519102 
L 185.293809 225.519102 
z
" clip-path="url(#p77d1ecda3e)" style="fill: #33b1ff; stroke: #33b1ff; stroke-width: 0.402539; stroke-linejoin: miter"/>
   </g>
   <g id="patch_78">
    <path d="M 203.191348 217.718477 
C 203.540618 217.718477 203.875629 217.57971 204.1226 217.33274 
C 204.369571 217.085769 204.508337 216.750757 204.508337 216.401488 
C 204.508337 216.052218 204.369571 215.717207 204.1226 215.470236 
C 203.875629 215.223265 203.540618 215.084499 203.191348 215.084499 
C 202.842079 215.084499 202.507067 215.223265 202.260097 215.470236 
C 202.013126 215.717207 201.87436 216.052218 201.87436 216.401488 
C 201.87436 216.750757 202.013126 217.085769 202.260097 217.33274 
C 202.507067 217.57971 202.842079 217.718477 203.191348 217.718477 
z
" clip-path="url(#p77d1ecda3e)" style="fill: #002d9c; stroke: #002d9c; stroke-width: 0.402539; stroke-linejoin: miter"/>
   </g>
   <g id="patch_79">
    <path d="M 203.191348 232.982038 
C 204.00631 232.982038 204.788004 232.65825 205.364269 232.081985 
C 205.940534 231.50572 206.264322 230.724027 206.264322 229.909065 
C 206.264322 229.094102 205.940534 228.312409 205.364269 227.736144 
C 204.788004 227.159879 204.00631 226.836091 203.191348 226.836091 
C 202.376386 226.836091 201.594693 227.159879 201.018428 227.736144 
C 200.442163 228.312409 200.118375 229.094102 200.118375 229.909065 
C 200.118375 230.724027 200.442163 231.50572 201.018428 232.081985 
C 201.594693 232.65825 202.376386 232.982038 203.191348 232.982038 
z
" clip-path="url(#p77d1ecda3e)" style="fill: #002d9c; stroke: #002d9c; stroke-width: 0.536719; stroke-linejoin: miter"/>
   </g>
   <g id="line2d_35">
    <path d="M 108.638311 137.112012 
L 108.638311 133.600042 
" clip-path="url(#p77d1ecda3e)" style="fill: none; stroke: #ffffff; stroke-width: 0.536719; stroke-linecap: square"/>
   </g>
   <g id="line2d_36">
    <path d="M 106.882326 135.356027 
L 110.394296 135.356027 
" clip-path="url(#p77d1ecda3e)" style="fill: none; stroke: #ffffff; stroke-width: 0.536719; stroke-linecap: square"/>
   </g>
   <g id="line2d_37">
    <path d="M 135.653465 137.112012 
L 135.653465 133.600042 
" clip-path="url(#p77d1ecda3e)" style="fill: none; stroke: #ffffff; stroke-width: 0.536719; stroke-linecap: square"/>
   </g>
   <g id="line2d_38">
    <path d="M 133.89748 135.356027 
L 137.40945 135.356027 
" clip-path="url(#p77d1ecda3e)" style="fill: none; stroke: #ffffff; stroke-width: 0.536719; stroke-linecap: square"/>
   </g>
   <g id="line2d_39">
    <path d="M 149.161041 150.619589 
L 149.161041 147.107619 
" clip-path="url(#p77d1ecda3e)" style="fill: none; stroke: #ffffff; stroke-width: 0.536719; stroke-linecap: square"/>
   </g>
   <g id="line2d_40">
    <path d="M 147.405056 148.863604 
L 150.917026 148.863604 
" clip-path="url(#p77d1ecda3e)" style="fill: none; stroke: #ffffff; stroke-width: 0.536719; stroke-linecap: square"/>
   </g>
   <g id="line2d_41">
    <path d="M 176.176195 150.619589 
L 176.176195 147.107619 
" clip-path="url(#p77d1ecda3e)" style="fill: none; stroke: #ffffff; stroke-width: 0.536719; stroke-linecap: square"/>
   </g>
   <g id="line2d_42">
    <path d="M 174.42021 148.863604 
L 177.93218 148.863604 
" clip-path="url(#p77d1ecda3e)" style="fill: none; stroke: #ffffff; stroke-width: 0.536719; stroke-linecap: square"/>
   </g>
   <g id="line2d_43">
    <path d="M 189.683772 150.619589 
L 189.683772 147.107619 
" clip-path="url(#p77d1ecda3e)" style="fill: none; stroke: #ffffff; stroke-width: 0.536719; stroke-linecap: square"/>
   </g>
   <g id="line2d_44">
    <path d="M 187.927787 148.863604 
L 191.439757 148.863604 
" clip-path="url(#p77d1ecda3e)" style="fill: none; stroke: #ffffff; stroke-width: 0.536719; stroke-linecap: square"/>
   </g>
   <g id="line2d_45">
    <path d="M 203.191348 164.127166 
L 203.191348 160.615196 
" clip-path="url(#p77d1ecda3e)" style="fill: none; stroke: #ffffff; stroke-width: 0.536719; stroke-linecap: square"/>
   </g>
   <g id="line2d_46">
    <path d="M 201.435363 162.371181 
L 204.947333 162.371181 
" clip-path="url(#p77d1ecda3e)" style="fill: none; stroke: #ffffff; stroke-width: 0.536719; stroke-linecap: square"/>
   </g>
   <g id="line2d_47">
    <path d="M 230.206502 150.619589 
L 230.206502 147.107619 
" clip-path="url(#p77d1ecda3e)" style="fill: none; stroke: #ffffff; stroke-width: 0.536719; stroke-linecap: square"/>
   </g>
   <g id="line2d_48">
    <path d="M 228.450517 148.863604 
L 231.962487 148.863604 
" clip-path="url(#p77d1ecda3e)" style="fill: none; stroke: #ffffff; stroke-width: 0.536719; stroke-linecap: square"/>
   </g>
   <g id="line2d_49">
    <path d="M 243.714079 164.127166 
L 243.714079 160.615196 
" clip-path="url(#p77d1ecda3e)" style="fill: none; stroke: #ffffff; stroke-width: 0.536719; stroke-linecap: square"/>
   </g>
   <g id="line2d_50">
    <path d="M 241.958094 162.371181 
L 245.470063 162.371181 
" clip-path="url(#p77d1ecda3e)" style="fill: none; stroke: #ffffff; stroke-width: 0.536719; stroke-linecap: square"/>
   </g>
   <g id="line2d_51">
    <path d="M 257.221655 164.127166 
L 257.221655 160.615196 
" clip-path="url(#p77d1ecda3e)" style="fill: none; stroke: #ffffff; stroke-width: 0.536719; stroke-linecap: square"/>
   </g>
   <g id="line2d_52">
    <path d="M 255.46567 162.371181 
L 258.97764 162.371181 
" clip-path="url(#p77d1ecda3e)" style="fill: none; stroke: #ffffff; stroke-width: 0.536719; stroke-linecap: square"/>
   </g>
   <g id="line2d_53">
    <path d="M 284.236809 164.127166 
L 284.236809 160.615196 
" clip-path="url(#p77d1ecda3e)" style="fill: none; stroke: #ffffff; stroke-width: 0.536719; stroke-linecap: square"/>
   </g>
   <g id="line2d_54">
    <path d="M 282.480824 162.371181 
L 285.992794 162.371181 
" clip-path="url(#p77d1ecda3e)" style="fill: none; stroke: #ffffff; stroke-width: 0.536719; stroke-linecap: square"/>
   </g>
   <g id="line2d_55">
    <path d="M 297.744385 164.127166 
L 297.744385 160.615196 
" clip-path="url(#p77d1ecda3e)" style="fill: none; stroke: #ffffff; stroke-width: 0.536719; stroke-linecap: square"/>
   </g>
   <g id="line2d_56">
    <path d="M 295.9884 162.371181 
L 299.50037 162.371181 
" clip-path="url(#p77d1ecda3e)" style="fill: none; stroke: #ffffff; stroke-width: 0.536719; stroke-linecap: square"/>
   </g>
   <g id="line2d_57">
    <path d="M 324.759539 137.112012 
L 324.759539 133.600042 
" clip-path="url(#p77d1ecda3e)" style="fill: none; stroke: #ffffff; stroke-width: 0.536719; stroke-linecap: square"/>
   </g>
   <g id="line2d_58">
    <path d="M 323.003554 135.356027 
L 326.515524 135.356027 
" clip-path="url(#p77d1ecda3e)" style="fill: none; stroke: #ffffff; stroke-width: 0.536719; stroke-linecap: square"/>
   </g>
   <g id="line2d_59">
    <path d="M 324.759539 164.127166 
L 324.759539 160.615196 
" clip-path="url(#p77d1ecda3e)" style="fill: none; stroke: #ffffff; stroke-width: 0.536719; stroke-linecap: square"/>
   </g>
   <g id="line2d_60">
    <path d="M 323.003554 162.371181 
L 326.515524 162.371181 
" clip-path="url(#p77d1ecda3e)" style="fill: none; stroke: #ffffff; stroke-width: 0.536719; stroke-linecap: square"/>
   </g>
   <g id="line2d_61">
    <path d="M 351.774692 137.112012 
L 351.774692 133.600042 
" clip-path="url(#p77d1ecda3e)" style="fill: none; stroke: #ffffff; stroke-width: 0.536719; stroke-linecap: square"/>
   </g>
   <g id="line2d_62">
    <path d="M 350.018707 135.356027 
L 353.530677 135.356027 
" clip-path="url(#p77d1ecda3e)" style="fill: none; stroke: #ffffff; stroke-width: 0.536719; stroke-linecap: square"/>
   </g>
   <g id="line2d_63">
    <path d="M 365.282269 150.619589 
L 365.282269 147.107619 
" clip-path="url(#p77d1ecda3e)" style="fill: none; stroke: #ffffff; stroke-width: 0.536719; stroke-linecap: square"/>
   </g>
   <g id="line2d_64">
    <path d="M 363.526284 148.863604 
L 367.038254 148.863604 
" clip-path="url(#p77d1ecda3e)" style="fill: none; stroke: #ffffff; stroke-width: 0.536719; stroke-linecap: square"/>
   </g>
   <g id="line2d_65">
    <path d="M 392.297423 150.619589 
L 392.297423 147.107619 
" clip-path="url(#p77d1ecda3e)" style="fill: none; stroke: #ffffff; stroke-width: 0.536719; stroke-linecap: square"/>
   </g>
   <g id="line2d_66">
    <path d="M 390.541438 148.863604 
L 394.053408 148.863604 
" clip-path="url(#p77d1ecda3e)" style="fill: none; stroke: #ffffff; stroke-width: 0.536719; stroke-linecap: square"/>
   </g>
   <g id="line2d_67">
    <path d="M 405.804999 150.619589 
L 405.804999 147.107619 
" clip-path="url(#p77d1ecda3e)" style="fill: none; stroke: #ffffff; stroke-width: 0.536719; stroke-linecap: square"/>
   </g>
   <g id="line2d_68">
    <path d="M 404.049014 148.863604 
L 407.560984 148.863604 
" clip-path="url(#p77d1ecda3e)" style="fill: none; stroke: #ffffff; stroke-width: 0.536719; stroke-linecap: square"/>
   </g>
   <g id="line2d_69">
    <path d="M 81.623158 231.66505 
L 81.623158 228.15308 
" clip-path="url(#p77d1ecda3e)" style="fill: none; stroke: #ffffff; stroke-width: 0.536719; stroke-linecap: square"/>
   </g>
   <g id="line2d_70">
    <path d="M 79.867173 229.909065 
L 83.379143 229.909065 
" clip-path="url(#p77d1ecda3e)" style="fill: none; stroke: #ffffff; stroke-width: 0.536719; stroke-linecap: square"/>
   </g>
   <g id="line2d_71">
    <path d="M 108.638311 218.157473 
L 108.638311 214.645503 
" clip-path="url(#p77d1ecda3e)" style="fill: none; stroke: #ffffff; stroke-width: 0.536719; stroke-linecap: square"/>
   </g>
   <g id="line2d_72">
    <path d="M 106.882326 216.401488 
L 110.394296 216.401488 
" clip-path="url(#p77d1ecda3e)" style="fill: none; stroke: #ffffff; stroke-width: 0.536719; stroke-linecap: square"/>
   </g>
   <g id="line2d_73">
    <path d="M 122.145888 231.66505 
L 122.145888 228.15308 
" clip-path="url(#p77d1ecda3e)" style="fill: none; stroke: #ffffff; stroke-width: 0.536719; stroke-linecap: square"/>
   </g>
   <g id="line2d_74">
    <path d="M 120.389903 229.909065 
L 123.901873 229.909065 
" clip-path="url(#p77d1ecda3e)" style="fill: none; stroke: #ffffff; stroke-width: 0.536719; stroke-linecap: square"/>
   </g>
   <g id="line2d_75">
    <path d="M 135.653465 231.66505 
L 135.653465 228.15308 
" clip-path="url(#p77d1ecda3e)" style="fill: none; stroke: #ffffff; stroke-width: 0.536719; stroke-linecap: square"/>
   </g>
   <g id="line2d_76">
    <path d="M 133.89748 229.909065 
L 137.40945 229.909065 
" clip-path="url(#p77d1ecda3e)" style="fill: none; stroke: #ffffff; stroke-width: 0.536719; stroke-linecap: square"/>
   </g>
   <g id="line2d_77">
    <path d="M 162.668618 231.66505 
L 162.668618 228.15308 
" clip-path="url(#p77d1ecda3e)" style="fill: none; stroke: #ffffff; stroke-width: 0.536719; stroke-linecap: square"/>
   </g>
   <g id="line2d_78">
    <path d="M 160.912633 229.909065 
L 164.424603 229.909065 
" clip-path="url(#p77d1ecda3e)" style="fill: none; stroke: #ffffff; stroke-width: 0.536719; stroke-linecap: square"/>
   </g>
   <g id="line2d_79">
    <path d="M 176.176195 231.66505 
L 176.176195 228.15308 
" clip-path="url(#p77d1ecda3e)" style="fill: none; stroke: #ffffff; stroke-width: 0.536719; stroke-linecap: square"/>
   </g>
   <g id="line2d_80">
    <path d="M 174.42021 229.909065 
L 177.93218 229.909065 
" clip-path="url(#p77d1ecda3e)" style="fill: none; stroke: #ffffff; stroke-width: 0.536719; stroke-linecap: square"/>
   </g>
   <g id="line2d_81">
    <path d="M 203.191348 231.66505 
L 203.191348 228.15308 
" clip-path="url(#p77d1ecda3e)" style="fill: none; stroke: #ffffff; stroke-width: 0.536719; stroke-linecap: square"/>
   </g>
   <g id="line2d_82">
    <path d="M 201.435363 229.909065 
L 204.947333 229.909065 
" clip-path="url(#p77d1ecda3e)" style="fill: none; stroke: #ffffff; stroke-width: 0.536719; stroke-linecap: square"/>
   </g>
   <g id="text_1">
    <g clip-path="url(#p77d1ecda3e)">
     <!-- ${q}_{0}$ -->
     <g transform="translate(66.787016 123.042913) scale(0.043608 -0.043608)">
      <defs>
       <path id="DejaVuSans-Oblique-71" d="M 2669 525 
Q 2438 222 2123 65 
Q 1809 -91 1428 -91 
Q 897 -91 595 267 
Q 294 625 294 1253 
Q 294 1759 480 2231 
Q 666 2703 1013 3078 
Q 1238 3322 1530 3453 
Q 1822 3584 2144 3584 
Q 2531 3584 2781 3431 
Q 3031 3278 3144 2969 
L 3244 3494 
L 3822 3494 
L 2888 -1319 
L 2309 -1319 
L 2669 525 
z
M 891 1338 
Q 891 875 1084 633 
Q 1278 391 1644 391 
Q 2188 391 2572 911 
Q 2956 1431 2956 2175 
Q 2956 2625 2757 2864 
Q 2559 3103 2188 3103 
Q 1916 3103 1684 2976 
Q 1453 2850 1281 2606 
Q 1100 2350 995 2006 
Q 891 1663 891 1338 
z
" transform="scale(0.015625)"/>
       <path id="DejaVuSans-30" d="M 2034 4250 
Q 1547 4250 1301 3770 
Q 1056 3291 1056 2328 
Q 1056 1369 1301 889 
Q 1547 409 2034 409 
Q 2525 409 2770 889 
Q 3016 1369 3016 2328 
Q 3016 3291 2770 3770 
Q 2525 4250 2034 4250 
z
M 2034 4750 
Q 2819 4750 3233 4129 
Q 3647 3509 3647 2328 
Q 3647 1150 3233 529 
Q 2819 -91 2034 -91 
Q 1250 -91 836 529 
Q 422 1150 422 2328 
Q 422 3509 836 4129 
Q 1250 4750 2034 4750 
z
" transform="scale(0.015625)"/>
      </defs>
      <use xlink:href="#DejaVuSans-Oblique-71"/>
      <use xlink:href="#DejaVuSans-30" transform="translate(63.476562 -16.40625) scale(0.7)"/>
     </g>
    </g>
   </g>
   <g id="text_2">
    <g clip-path="url(#p77d1ecda3e)">
     <!-- ${q}_{1}$ -->
     <g transform="translate(66.787016 136.550489) scale(0.043608 -0.043608)">
      <defs>
       <path id="DejaVuSans-31" d="M 794 531 
L 1825 531 
L 1825 4091 
L 703 3866 
L 703 4441 
L 1819 4666 
L 2450 4666 
L 2450 531 
L 3481 531 
L 3481 0 
L 794 0 
L 794 531 
z
" transform="scale(0.015625)"/>
      </defs>
      <use xlink:href="#DejaVuSans-Oblique-71"/>
      <use xlink:href="#DejaVuSans-31" transform="translate(63.476562 -16.40625) scale(0.7)"/>
     </g>
    </g>
   </g>
   <g id="text_3">
    <g clip-path="url(#p77d1ecda3e)">
     <!-- ${q}_{2}$ -->
     <g transform="translate(66.787016 150.058066) scale(0.043608 -0.043608)">
      <defs>
       <path id="DejaVuSans-32" d="M 1228 531 
L 3431 531 
L 3431 0 
L 469 0 
L 469 531 
Q 828 903 1448 1529 
Q 2069 2156 2228 2338 
Q 2531 2678 2651 2914 
Q 2772 3150 2772 3378 
Q 2772 3750 2511 3984 
Q 2250 4219 1831 4219 
Q 1534 4219 1204 4116 
Q 875 4013 500 3803 
L 500 4441 
Q 881 4594 1212 4672 
Q 1544 4750 1819 4750 
Q 2544 4750 2975 4387 
Q 3406 4025 3406 3419 
Q 3406 3131 3298 2873 
Q 3191 2616 2906 2266 
Q 2828 2175 2409 1742 
Q 1991 1309 1228 531 
z
" transform="scale(0.015625)"/>
      </defs>
      <use xlink:href="#DejaVuSans-Oblique-71"/>
      <use xlink:href="#DejaVuSans-32" transform="translate(63.476562 -16.40625) scale(0.7)"/>
     </g>
    </g>
   </g>
   <g id="text_4">
    <g clip-path="url(#p77d1ecda3e)">
     <!-- ${q}_{3}$ -->
     <g transform="translate(66.787016 163.565643) scale(0.043608 -0.043608)">
      <defs>
       <path id="DejaVuSans-33" d="M 2597 2516 
Q 3050 2419 3304 2112 
Q 3559 1806 3559 1356 
Q 3559 666 3084 287 
Q 2609 -91 1734 -91 
Q 1441 -91 1130 -33 
Q 819 25 488 141 
L 488 750 
Q 750 597 1062 519 
Q 1375 441 1716 441 
Q 2309 441 2620 675 
Q 2931 909 2931 1356 
Q 2931 1769 2642 2001 
Q 2353 2234 1838 2234 
L 1294 2234 
L 1294 2753 
L 1863 2753 
Q 2328 2753 2575 2939 
Q 2822 3125 2822 3475 
Q 2822 3834 2567 4026 
Q 2313 4219 1838 4219 
Q 1578 4219 1281 4162 
Q 984 4106 628 3988 
L 628 4550 
Q 988 4650 1302 4700 
Q 1616 4750 1894 4750 
Q 2613 4750 3031 4423 
Q 3450 4097 3450 3541 
Q 3450 3153 3228 2886 
Q 3006 2619 2597 2516 
z
" transform="scale(0.015625)"/>
      </defs>
      <use xlink:href="#DejaVuSans-Oblique-71"/>
      <use xlink:href="#DejaVuSans-33" transform="translate(63.476562 -16.40625) scale(0.7)"/>
     </g>
    </g>
   </g>
   <g id="text_5">
    <g clip-path="url(#p77d1ecda3e)">
     <!-- ${q}_{0}$ -->
     <g transform="translate(66.787016 190.580796) scale(0.043608 -0.043608)">
      <use xlink:href="#DejaVuSans-Oblique-71"/>
      <use xlink:href="#DejaVuSans-30" transform="translate(63.476562 -16.40625) scale(0.7)"/>
     </g>
    </g>
   </g>
   <g id="text_6">
    <g clip-path="url(#p77d1ecda3e)">
     <!-- ${q}_{1}$ -->
     <g transform="translate(66.787016 204.088373) scale(0.043608 -0.043608)">
      <use xlink:href="#DejaVuSans-Oblique-71"/>
      <use xlink:href="#DejaVuSans-31" transform="translate(63.476562 -16.40625) scale(0.7)"/>
     </g>
    </g>
   </g>
   <g id="text_7">
    <g clip-path="url(#p77d1ecda3e)">
     <!-- ${q}_{2}$ -->
     <g transform="translate(66.787016 217.59595) scale(0.043608 -0.043608)">
      <use xlink:href="#DejaVuSans-Oblique-71"/>
      <use xlink:href="#DejaVuSans-32" transform="translate(63.476562 -16.40625) scale(0.7)"/>
     </g>
    </g>
   </g>
   <g id="text_8">
    <g clip-path="url(#p77d1ecda3e)">
     <!-- ${q}_{3}$ -->
     <g transform="translate(66.787016 231.103526) scale(0.043608 -0.043608)">
      <use xlink:href="#DejaVuSans-Oblique-71"/>
      <use xlink:href="#DejaVuSans-33" transform="translate(63.476562 -16.40625) scale(0.7)"/>
     </g>
    </g>
   </g>
   <g id="text_9">
    <g clip-path="url(#p77d1ecda3e)">
     <!-- H -->
     <g transform="translate(80.311362 122.811107) scale(0.034887 -0.034887)">
      <defs>
       <path id="DejaVuSans-48" d="M 628 4666 
L 1259 4666 
L 1259 2753 
L 3553 2753 
L 3553 4666 
L 4184 4666 
L 4184 0 
L 3553 0 
L 3553 2222 
L 1259 2222 
L 1259 0 
L 628 0 
L 628 4666 
z
" transform="scale(0.015625)"/>
      </defs>
      <use xlink:href="#DejaVuSans-48"/>
     </g>
    </g>
   </g>
   <g id="text_10">
    <g clip-path="url(#p77d1ecda3e)">
     <!-- H -->
     <g transform="translate(80.311362 136.318683) scale(0.034887 -0.034887)">
      <use xlink:href="#DejaVuSans-48"/>
     </g>
    </g>
   </g>
   <g id="text_11">
    <g clip-path="url(#p77d1ecda3e)">
     <!-- H -->
     <g transform="translate(80.311362 149.82626) scale(0.034887 -0.034887)">
      <use xlink:href="#DejaVuSans-48"/>
     </g>
    </g>
   </g>
   <g id="text_12">
    <g clip-path="url(#p77d1ecda3e)">
     <!-- H -->
     <g transform="translate(80.311362 163.333837) scale(0.034887 -0.034887)">
      <use xlink:href="#DejaVuSans-48"/>
     </g>
    </g>
   </g>
   <g id="text_13">
    <g clip-path="url(#p77d1ecda3e)">
     <!-- 0.2 -->
     <g transform="translate(93.423633 125.074832) scale(0.021469 -0.021469)">
      <defs>
       <path id="DejaVuSans-2e" d="M 684 794 
L 1344 794 
L 1344 0 
L 684 0 
L 684 794 
z
" transform="scale(0.015625)"/>
      </defs>
      <use xlink:href="#DejaVuSans-30"/>
      <use xlink:href="#DejaVuSans-2e" transform="translate(63.623047 0)"/>
      <use xlink:href="#DejaVuSans-32" transform="translate(95.410156 0)"/>
     </g>
    </g>
   </g>
   <g id="text_14">
    <g clip-path="url(#p77d1ecda3e)">
     <!-- P -->
     <g transform="translate(94.078954 121.494118) scale(0.034887 -0.034887)">
      <defs>
       <path id="DejaVuSans-50" d="M 1259 4147 
L 1259 2394 
L 2053 2394 
Q 2494 2394 2734 2622 
Q 2975 2850 2975 3272 
Q 2975 3691 2734 3919 
Q 2494 4147 2053 4147 
L 1259 4147 
z
M 628 4666 
L 2053 4666 
Q 2838 4666 3239 4311 
Q 3641 3956 3641 3272 
Q 3641 2581 3239 2228 
Q 2838 1875 2053 1875 
L 1259 1875 
L 1259 0 
L 628 0 
L 628 4666 
z
" transform="scale(0.015625)"/>
      </defs>
      <use xlink:href="#DejaVuSans-50"/>
     </g>
    </g>
   </g>
   <g id="text_15">
    <g clip-path="url(#p77d1ecda3e)">
     <!-- 0.4 -->
     <g transform="translate(93.423633 138.582409) scale(0.021469 -0.021469)">
      <defs>
       <path id="DejaVuSans-34" d="M 2419 4116 
L 825 1625 
L 2419 1625 
L 2419 4116 
z
M 2253 4666 
L 3047 4666 
L 3047 1625 
L 3713 1625 
L 3713 1100 
L 3047 1100 
L 3047 0 
L 2419 0 
L 2419 1100 
L 313 1100 
L 313 1709 
L 2253 4666 
z
" transform="scale(0.015625)"/>
      </defs>
      <use xlink:href="#DejaVuSans-30"/>
      <use xlink:href="#DejaVuSans-2e" transform="translate(63.623047 0)"/>
      <use xlink:href="#DejaVuSans-34" transform="translate(95.410156 0)"/>
     </g>
    </g>
   </g>
   <g id="text_16">
    <g clip-path="url(#p77d1ecda3e)">
     <!-- P -->
     <g transform="translate(94.078954 135.001695) scale(0.034887 -0.034887)">
      <use xlink:href="#DejaVuSans-50"/>
     </g>
    </g>
   </g>
   <g id="text_17">
    <g clip-path="url(#p77d1ecda3e)">
     <!-- 0.6 -->
     <g transform="translate(93.423633 152.089985) scale(0.021469 -0.021469)">
      <defs>
       <path id="DejaVuSans-36" d="M 2113 2584 
Q 1688 2584 1439 2293 
Q 1191 2003 1191 1497 
Q 1191 994 1439 701 
Q 1688 409 2113 409 
Q 2538 409 2786 701 
Q 3034 994 3034 1497 
Q 3034 2003 2786 2293 
Q 2538 2584 2113 2584 
z
M 3366 4563 
L 3366 3988 
Q 3128 4100 2886 4159 
Q 2644 4219 2406 4219 
Q 1781 4219 1451 3797 
Q 1122 3375 1075 2522 
Q 1259 2794 1537 2939 
Q 1816 3084 2150 3084 
Q 2853 3084 3261 2657 
Q 3669 2231 3669 1497 
Q 3669 778 3244 343 
Q 2819 -91 2113 -91 
Q 1303 -91 875 529 
Q 447 1150 447 2328 
Q 447 3434 972 4092 
Q 1497 4750 2381 4750 
Q 2619 4750 2861 4703 
Q 3103 4656 3366 4563 
z
" transform="scale(0.015625)"/>
      </defs>
      <use xlink:href="#DejaVuSans-30"/>
      <use xlink:href="#DejaVuSans-2e" transform="translate(63.623047 0)"/>
      <use xlink:href="#DejaVuSans-36" transform="translate(95.410156 0)"/>
     </g>
    </g>
   </g>
   <g id="text_18">
    <g clip-path="url(#p77d1ecda3e)">
     <!-- P -->
     <g transform="translate(94.078954 148.509271) scale(0.034887 -0.034887)">
      <use xlink:href="#DejaVuSans-50"/>
     </g>
    </g>
   </g>
   <g id="text_19">
    <g clip-path="url(#p77d1ecda3e)">
     <!-- 0.8 -->
     <g transform="translate(93.423633 165.597562) scale(0.021469 -0.021469)">
      <defs>
       <path id="DejaVuSans-38" d="M 2034 2216 
Q 1584 2216 1326 1975 
Q 1069 1734 1069 1313 
Q 1069 891 1326 650 
Q 1584 409 2034 409 
Q 2484 409 2743 651 
Q 3003 894 3003 1313 
Q 3003 1734 2745 1975 
Q 2488 2216 2034 2216 
z
M 1403 2484 
Q 997 2584 770 2862 
Q 544 3141 544 3541 
Q 544 4100 942 4425 
Q 1341 4750 2034 4750 
Q 2731 4750 3128 4425 
Q 3525 4100 3525 3541 
Q 3525 3141 3298 2862 
Q 3072 2584 2669 2484 
Q 3125 2378 3379 2068 
Q 3634 1759 3634 1313 
Q 3634 634 3220 271 
Q 2806 -91 2034 -91 
Q 1263 -91 848 271 
Q 434 634 434 1313 
Q 434 1759 690 2068 
Q 947 2378 1403 2484 
z
M 1172 3481 
Q 1172 3119 1398 2916 
Q 1625 2713 2034 2713 
Q 2441 2713 2670 2916 
Q 2900 3119 2900 3481 
Q 2900 3844 2670 4047 
Q 2441 4250 2034 4250 
Q 1625 4250 1398 4047 
Q 1172 3844 1172 3481 
z
" transform="scale(0.015625)"/>
      </defs>
      <use xlink:href="#DejaVuSans-30"/>
      <use xlink:href="#DejaVuSans-2e" transform="translate(63.623047 0)"/>
      <use xlink:href="#DejaVuSans-38" transform="translate(95.410156 0)"/>
     </g>
    </g>
   </g>
   <g id="text_20">
    <g clip-path="url(#p77d1ecda3e)">
     <!-- P -->
     <g transform="translate(94.078954 162.016848) scale(0.034887 -0.034887)">
      <use xlink:href="#DejaVuSans-50"/>
     </g>
    </g>
   </g>
   <g id="text_21">
    <g clip-path="url(#p77d1ecda3e)">
     <!-- 17.9 -->
     <g transform="translate(119.755811 138.582409) scale(0.021469 -0.021469)">
      <defs>
       <path id="DejaVuSans-37" d="M 525 4666 
L 3525 4666 
L 3525 4397 
L 1831 0 
L 1172 0 
L 2766 4134 
L 525 4134 
L 525 4666 
z
" transform="scale(0.015625)"/>
       <path id="DejaVuSans-39" d="M 703 97 
L 703 672 
Q 941 559 1184 500 
Q 1428 441 1663 441 
Q 2288 441 2617 861 
Q 2947 1281 2994 2138 
Q 2813 1869 2534 1725 
Q 2256 1581 1919 1581 
Q 1219 1581 811 2004 
Q 403 2428 403 3163 
Q 403 3881 828 4315 
Q 1253 4750 1959 4750 
Q 2769 4750 3195 4129 
Q 3622 3509 3622 2328 
Q 3622 1225 3098 567 
Q 2575 -91 1691 -91 
Q 1453 -91 1209 -44 
Q 966 3 703 97 
z
M 1959 2075 
Q 2384 2075 2632 2365 
Q 2881 2656 2881 3163 
Q 2881 3666 2632 3958 
Q 2384 4250 1959 4250 
Q 1534 4250 1286 3958 
Q 1038 3666 1038 3163 
Q 1038 2656 1286 2365 
Q 1534 2075 1959 2075 
z
" transform="scale(0.015625)"/>
      </defs>
      <use xlink:href="#DejaVuSans-31"/>
      <use xlink:href="#DejaVuSans-37" transform="translate(63.623047 0)"/>
      <use xlink:href="#DejaVuSans-2e" transform="translate(127.246094 0)"/>
      <use xlink:href="#DejaVuSans-39" transform="translate(159.033203 0)"/>
     </g>
    </g>
   </g>
   <g id="text_22">
    <g clip-path="url(#p77d1ecda3e)">
     <!-- P -->
     <g transform="translate(121.094107 135.001695) scale(0.034887 -0.034887)">
      <use xlink:href="#DejaVuSans-50"/>
     </g>
    </g>
   </g>
   <g id="text_23">
    <g clip-path="url(#p77d1ecda3e)">
     <!-- 17.3 -->
     <g transform="translate(160.278541 152.089985) scale(0.021469 -0.021469)">
      <use xlink:href="#DejaVuSans-31"/>
      <use xlink:href="#DejaVuSans-37" transform="translate(63.623047 0)"/>
      <use xlink:href="#DejaVuSans-2e" transform="translate(127.246094 0)"/>
      <use xlink:href="#DejaVuSans-33" transform="translate(159.033203 0)"/>
     </g>
    </g>
   </g>
   <g id="text_24">
    <g clip-path="url(#p77d1ecda3e)">
     <!-- P -->
     <g transform="translate(161.616838 148.509271) scale(0.034887 -0.034887)">
      <use xlink:href="#DejaVuSans-50"/>
     </g>
    </g>
   </g>
   <g id="text_25">
    <g clip-path="url(#p77d1ecda3e)">
     <!-- 16.7 -->
     <g transform="translate(214.308848 152.089985) scale(0.021469 -0.021469)">
      <use xlink:href="#DejaVuSans-31"/>
      <use xlink:href="#DejaVuSans-36" transform="translate(63.623047 0)"/>
      <use xlink:href="#DejaVuSans-2e" transform="translate(127.246094 0)"/>
      <use xlink:href="#DejaVuSans-37" transform="translate(159.033203 0)"/>
     </g>
    </g>
   </g>
   <g id="text_26">
    <g clip-path="url(#p77d1ecda3e)">
     <!-- P -->
     <g transform="translate(215.647145 148.509271) scale(0.034887 -0.034887)">
      <use xlink:href="#DejaVuSans-50"/>
     </g>
    </g>
   </g>
   <g id="text_27">
    <g clip-path="url(#p77d1ecda3e)">
     <!-- 16.7 -->
     <g transform="translate(214.308848 165.597562) scale(0.021469 -0.021469)">
      <use xlink:href="#DejaVuSans-31"/>
      <use xlink:href="#DejaVuSans-36" transform="translate(63.623047 0)"/>
      <use xlink:href="#DejaVuSans-2e" transform="translate(127.246094 0)"/>
      <use xlink:href="#DejaVuSans-37" transform="translate(159.033203 0)"/>
     </g>
    </g>
   </g>
   <g id="text_28">
    <g clip-path="url(#p77d1ecda3e)">
     <!-- P -->
     <g transform="translate(215.647145 162.016848) scale(0.034887 -0.034887)">
      <use xlink:href="#DejaVuSans-50"/>
     </g>
    </g>
   </g>
   <g id="text_29">
    <g clip-path="url(#p77d1ecda3e)">
     <!-- H -->
     <g transform="translate(255.90986 122.811107) scale(0.034887 -0.034887)">
      <use xlink:href="#DejaVuSans-48"/>
     </g>
    </g>
   </g>
   <g id="text_30">
    <g clip-path="url(#p77d1ecda3e)">
     <!-- 0.2 -->
     <g transform="translate(269.02213 125.074832) scale(0.021469 -0.021469)">
      <use xlink:href="#DejaVuSans-30"/>
      <use xlink:href="#DejaVuSans-2e" transform="translate(63.623047 0)"/>
      <use xlink:href="#DejaVuSans-32" transform="translate(95.410156 0)"/>
     </g>
    </g>
   </g>
   <g id="text_31">
    <g clip-path="url(#p77d1ecda3e)">
     <!-- P -->
     <g transform="translate(269.677451 121.494118) scale(0.034887 -0.034887)">
      <use xlink:href="#DejaVuSans-50"/>
     </g>
    </g>
   </g>
   <g id="text_32">
    <g clip-path="url(#p77d1ecda3e)">
     <!-- 16.1 -->
     <g transform="translate(268.339155 165.597562) scale(0.021469 -0.021469)">
      <use xlink:href="#DejaVuSans-31"/>
      <use xlink:href="#DejaVuSans-36" transform="translate(63.623047 0)"/>
      <use xlink:href="#DejaVuSans-2e" transform="translate(127.246094 0)"/>
      <use xlink:href="#DejaVuSans-31" transform="translate(159.033203 0)"/>
     </g>
    </g>
   </g>
   <g id="text_33">
    <g clip-path="url(#p77d1ecda3e)">
     <!-- P -->
     <g transform="translate(269.677451 162.016848) scale(0.034887 -0.034887)">
      <use xlink:href="#DejaVuSans-50"/>
     </g>
    </g>
   </g>
   <g id="text_34">
    <g clip-path="url(#p77d1ecda3e)">
     <!-- H -->
     <g transform="translate(296.43259 136.318683) scale(0.034887 -0.034887)">
      <use xlink:href="#DejaVuSans-48"/>
     </g>
    </g>
   </g>
   <g id="text_35">
    <g clip-path="url(#p77d1ecda3e)">
     <!-- 0.4 -->
     <g transform="translate(309.54486 138.582409) scale(0.021469 -0.021469)">
      <use xlink:href="#DejaVuSans-30"/>
      <use xlink:href="#DejaVuSans-2e" transform="translate(63.623047 0)"/>
      <use xlink:href="#DejaVuSans-34" transform="translate(95.410156 0)"/>
     </g>
    </g>
   </g>
   <g id="text_36">
    <g clip-path="url(#p77d1ecda3e)">
     <!-- P -->
     <g transform="translate(310.200182 135.001695) scale(0.034887 -0.034887)">
      <use xlink:href="#DejaVuSans-50"/>
     </g>
    </g>
   </g>
   <g id="text_37">
    <g clip-path="url(#p77d1ecda3e)">
     <!-- 15.6 -->
     <g transform="translate(308.861885 165.597562) scale(0.021469 -0.021469)">
      <defs>
       <path id="DejaVuSans-35" d="M 691 4666 
L 3169 4666 
L 3169 4134 
L 1269 4134 
L 1269 2991 
Q 1406 3038 1543 3061 
Q 1681 3084 1819 3084 
Q 2600 3084 3056 2656 
Q 3513 2228 3513 1497 
Q 3513 744 3044 326 
Q 2575 -91 1722 -91 
Q 1428 -91 1123 -41 
Q 819 9 494 109 
L 494 744 
Q 775 591 1075 516 
Q 1375 441 1709 441 
Q 2250 441 2565 725 
Q 2881 1009 2881 1497 
Q 2881 1984 2565 2268 
Q 2250 2553 1709 2553 
Q 1456 2553 1204 2497 
Q 953 2441 691 2322 
L 691 4666 
z
" transform="scale(0.015625)"/>
      </defs>
      <use xlink:href="#DejaVuSans-31"/>
      <use xlink:href="#DejaVuSans-35" transform="translate(63.623047 0)"/>
      <use xlink:href="#DejaVuSans-2e" transform="translate(127.246094 0)"/>
      <use xlink:href="#DejaVuSans-36" transform="translate(159.033203 0)"/>
     </g>
    </g>
   </g>
   <g id="text_38">
    <g clip-path="url(#p77d1ecda3e)">
     <!-- P -->
     <g transform="translate(310.200182 162.016848) scale(0.034887 -0.034887)">
      <use xlink:href="#DejaVuSans-50"/>
     </g>
    </g>
   </g>
   <g id="text_39">
    <g clip-path="url(#p77d1ecda3e)">
     <!-- 17.9 -->
     <g transform="translate(335.877039 138.582409) scale(0.021469 -0.021469)">
      <use xlink:href="#DejaVuSans-31"/>
      <use xlink:href="#DejaVuSans-37" transform="translate(63.623047 0)"/>
      <use xlink:href="#DejaVuSans-2e" transform="translate(127.246094 0)"/>
      <use xlink:href="#DejaVuSans-39" transform="translate(159.033203 0)"/>
     </g>
    </g>
   </g>
   <g id="text_40">
    <g clip-path="url(#p77d1ecda3e)">
     <!-- P -->
     <g transform="translate(337.215335 135.001695) scale(0.034887 -0.034887)">
      <use xlink:href="#DejaVuSans-50"/>
     </g>
    </g>
   </g>
   <g id="text_41">
    <g clip-path="url(#p77d1ecda3e)">
     <!-- H -->
     <g transform="translate(336.95532 149.82626) scale(0.034887 -0.034887)">
      <use xlink:href="#DejaVuSans-48"/>
     </g>
    </g>
   </g>
   <g id="text_42">
    <g clip-path="url(#p77d1ecda3e)">
     <!-- H -->
     <g transform="translate(336.95532 163.333837) scale(0.034887 -0.034887)">
      <use xlink:href="#DejaVuSans-48"/>
     </g>
    </g>
   </g>
   <g id="text_43">
    <g clip-path="url(#p77d1ecda3e)">
     <!-- 0.6 -->
     <g transform="translate(350.067591 152.089985) scale(0.021469 -0.021469)">
      <use xlink:href="#DejaVuSans-30"/>
      <use xlink:href="#DejaVuSans-2e" transform="translate(63.623047 0)"/>
      <use xlink:href="#DejaVuSans-36" transform="translate(95.410156 0)"/>
     </g>
    </g>
   </g>
   <g id="text_44">
    <g clip-path="url(#p77d1ecda3e)">
     <!-- P -->
     <g transform="translate(350.722912 148.509271) scale(0.034887 -0.034887)">
      <use xlink:href="#DejaVuSans-50"/>
     </g>
    </g>
   </g>
   <g id="text_45">
    <g clip-path="url(#p77d1ecda3e)">
     <!-- 0.8 -->
     <g transform="translate(350.067591 165.597562) scale(0.021469 -0.021469)">
      <use xlink:href="#DejaVuSans-30"/>
      <use xlink:href="#DejaVuSans-2e" transform="translate(63.623047 0)"/>
      <use xlink:href="#DejaVuSans-38" transform="translate(95.410156 0)"/>
     </g>
    </g>
   </g>
   <g id="text_46">
    <g clip-path="url(#p77d1ecda3e)">
     <!-- P -->
     <g transform="translate(350.722912 162.016848) scale(0.034887 -0.034887)">
      <use xlink:href="#DejaVuSans-50"/>
     </g>
    </g>
   </g>
   <g id="text_47">
    <g clip-path="url(#p77d1ecda3e)">
     <!-- 17.3 -->
     <g transform="translate(376.399769 152.089985) scale(0.021469 -0.021469)">
      <use xlink:href="#DejaVuSans-31"/>
      <use xlink:href="#DejaVuSans-37" transform="translate(63.623047 0)"/>
      <use xlink:href="#DejaVuSans-2e" transform="translate(127.246094 0)"/>
      <use xlink:href="#DejaVuSans-33" transform="translate(159.033203 0)"/>
     </g>
    </g>
   </g>
   <g id="text_48">
    <g clip-path="url(#p77d1ecda3e)">
     <!-- P -->
     <g transform="translate(377.738065 148.509271) scale(0.034887 -0.034887)">
      <use xlink:href="#DejaVuSans-50"/>
     </g>
    </g>
   </g>
   <g id="text_49">
    <g clip-path="url(#p77d1ecda3e)">
     <!-- 16.7 -->
     <g transform="translate(92.740658 219.627869) scale(0.021469 -0.021469)">
      <use xlink:href="#DejaVuSans-31"/>
      <use xlink:href="#DejaVuSans-36" transform="translate(63.623047 0)"/>
      <use xlink:href="#DejaVuSans-2e" transform="translate(127.246094 0)"/>
      <use xlink:href="#DejaVuSans-37" transform="translate(159.033203 0)"/>
     </g>
    </g>
   </g>
   <g id="text_50">
    <g clip-path="url(#p77d1ecda3e)">
     <!-- P -->
     <g transform="translate(94.078954 216.047155) scale(0.034887 -0.034887)">
      <use xlink:href="#DejaVuSans-50"/>
     </g>
    </g>
   </g>
   <g id="text_51">
    <g clip-path="url(#p77d1ecda3e)">
     <!-- 16.7 -->
     <g transform="translate(92.740658 233.135446) scale(0.021469 -0.021469)">
      <use xlink:href="#DejaVuSans-31"/>
      <use xlink:href="#DejaVuSans-36" transform="translate(63.623047 0)"/>
      <use xlink:href="#DejaVuSans-2e" transform="translate(127.246094 0)"/>
      <use xlink:href="#DejaVuSans-37" transform="translate(159.033203 0)"/>
     </g>
    </g>
   </g>
   <g id="text_52">
    <g clip-path="url(#p77d1ecda3e)">
     <!-- P -->
     <g transform="translate(94.078954 229.554732) scale(0.034887 -0.034887)">
      <use xlink:href="#DejaVuSans-50"/>
     </g>
    </g>
   </g>
   <g id="text_53">
    <g clip-path="url(#p77d1ecda3e)">
     <!-- 16.1 -->
     <g transform="translate(146.770965 233.135446) scale(0.021469 -0.021469)">
      <use xlink:href="#DejaVuSans-31"/>
      <use xlink:href="#DejaVuSans-36" transform="translate(63.623047 0)"/>
      <use xlink:href="#DejaVuSans-2e" transform="translate(127.246094 0)"/>
      <use xlink:href="#DejaVuSans-31" transform="translate(159.033203 0)"/>
     </g>
    </g>
   </g>
   <g id="text_54">
    <g clip-path="url(#p77d1ecda3e)">
     <!-- P -->
     <g transform="translate(148.109261 229.554732) scale(0.034887 -0.034887)">
      <use xlink:href="#DejaVuSans-50"/>
     </g>
    </g>
   </g>
   <g id="text_55">
    <g clip-path="url(#p77d1ecda3e)">
     <!-- 15.6 -->
     <g transform="translate(187.293695 233.135446) scale(0.021469 -0.021469)">
      <use xlink:href="#DejaVuSans-31"/>
      <use xlink:href="#DejaVuSans-35" transform="translate(63.623047 0)"/>
      <use xlink:href="#DejaVuSans-2e" transform="translate(127.246094 0)"/>
      <use xlink:href="#DejaVuSans-36" transform="translate(159.033203 0)"/>
     </g>
    </g>
   </g>
   <g id="text_56">
    <g clip-path="url(#p77d1ecda3e)">
     <!-- P -->
     <g transform="translate(188.631991 229.554732) scale(0.034887 -0.034887)">
      <use xlink:href="#DejaVuSans-50"/>
     </g>
    </g>
   </g>
  </g>
 </g>
 <defs>
  <clipPath id="p77d1ecda3e">
   <rect x="57.6" y="111.042389" width="357.12" height="126.971221"/>
  </clipPath>
 </defs>
</svg>
